<svg width="40" height="40" viewBox="0 0 40 40" fill="none" xmlns="http://www.w3.org/2000/svg">
<path fill-rule="evenodd" clip-rule="evenodd" d="M15.4286 16H23.1429V25.5659C23.4076 25.6543 23.6654 25.7402 23.8888 25.8145L25.2857 26.2779V30.1429H15.4286V26.2779L16.8255 25.8145C17.0489 25.7402 17.3067 25.6543 17.5714 25.5659V20.5779L15.4286 19.8636V16ZM17.4286 18.4221L19.5714 19.1364V27.0048L18.8898 27.2337C18.4099 27.3949 17.8731 27.5738 17.4567 27.7123L17.4286 27.7216V28.1429H23.2857V27.7216L23.2576 27.7123C22.8412 27.5738 22.3044 27.3949 21.8245 27.2337L21.1429 27.0048V18H17.4286V18.4221Z" fill="#404040"/>
<path fill-rule="evenodd" clip-rule="evenodd" d="M20 8C18.262 8 16.8572 9.40486 16.8572 11.1429C16.8572 12.8809 18.262 14.2857 20 14.2857C21.738 14.2857 23.1429 12.8809 23.1429 11.1429C23.1429 9.40486 21.738 8 20 8ZM18.8572 11.1429C18.8572 10.5094 19.3666 10 20 10C20.6335 10 21.1429 10.5094 21.1429 11.1429C21.1429 11.7763 20.6335 12.2857 20 12.2857C19.3666 12.2857 18.8572 11.7763 18.8572 11.1429Z" fill="#404040"/>
<path fill-rule="evenodd" clip-rule="evenodd" d="M4 20C4 11.1634 11.1634 4 20 4C28.8366 4 36 11.1634 36 20C36 28.8366 28.8366 36 20 36C11.1634 36 4 28.8366 4 20ZM20 6C12.268 6 6 12.268 6 20C6 27.732 12.268 34 20 34C27.732 34 34 27.732 34 20C34 12.268 27.732 6 20 6Z" fill="#404040"/>
</svg>
