<svg width="40" height="40" viewBox="0 0 40 40" fill="none" xmlns="http://www.w3.org/2000/svg">
<path fill-rule="evenodd" clip-rule="evenodd" d="M14 9.999H26V4H14V9.999ZM15.999 7.999H23.999V5.999H15.999V7.999Z" fill="#404040"/>
<path fill-rule="evenodd" clip-rule="evenodd" d="M17.1551 15.0041L13.008 19.0813L10.3377 16.4561L11.7399 15.0299L13.008 16.2766L15.753 13.5779L17.1551 15.0041Z" fill="#404040"/>
<path fill-rule="evenodd" clip-rule="evenodd" d="M17.1551 24.684L13.008 28.7612L10.3377 26.136L11.7399 24.7098L13.008 25.9565L15.753 23.2578L17.1551 24.684Z" fill="#404040"/>
<path fill-rule="evenodd" clip-rule="evenodd" d="M28.7614 16.743H18.9155V14.743H28.7614V16.743Z" fill="#404040"/>
<path fill-rule="evenodd" clip-rule="evenodd" d="M28.7614 26.4229H18.9155V24.4229H28.7614V26.4229Z" fill="#404040"/>
<path fill-rule="evenodd" clip-rule="evenodd" d="M6 6H12V8H8V33H32V8H28V6H34V35H6V6Z" fill="#404040"/>
</svg>
