<svg width="32" height="32" viewBox="0 0 32 32" fill="none" xmlns="http://www.w3.org/2000/svg">
<path fill-rule="evenodd" clip-rule="evenodd" d="M16.7981 26.2953C16.8894 27.3264 16.949 28 15.4043 28C13.455 28 12.7172 25.4093 12.7172 24.1269C12.7172 22.8444 14.0611 20.2537 14.0611 20.2537H8.46189C7.09149 20.2537 6 19.1923 6 17.8833C6 17.8833 7.08915 10.613 7.34313 9.58708C7.59789 8.56263 8.43462 7.10946 9.8058 6.97494L19.1945 6.051C19.4391 6.02661 19.8084 6 20.1496 6C20.3911 6 20.6186 6.0133 20.7783 6.051C21.2949 6.17296 22.1215 6.66745 22.1215 7.61651L22.1215 17.6711C22.116 17.7931 22.0833 17.9254 22.0342 18.0629C22.0023 18.1597 21.9602 18.2536 21.9064 18.3467C21.5106 19.1276 20.605 20.0948 19.6612 21.1027C18.2475 22.6124 16.7482 24.2136 16.7482 25.4174C16.7482 25.7308 16.7742 26.0253 16.7981 26.2953Z" fill="#C4C4C4"/>
<path d="M24.0952 6.05187H26L26 18.3467H24.0952L24.0952 6.05187Z" fill="#C4C4C4"/>
</svg>
