<svg width="40" height="40" viewBox="0 0 40 40" fill="none" xmlns="http://www.w3.org/2000/svg">
<path d="M38.6311 10.8248L28.4406 0.235781C28.2955 0.0851562 28.0954 0 27.8863 0H12.698C10.9983 0 9.61537 1.38234 9.61537 3.08141V13.8462H3.46014C2.18842 13.8462 1.15381 14.8805 1.15381 16.1519V27.6944C1.15381 28.9657 2.18842 30 3.46014 30H9.61537V36.924C9.61537 38.6201 10.9983 40 12.698 40H35.7635C37.4633 40 38.8461 38.6209 38.8461 36.9257V11.3582C38.8461 11.1593 38.769 10.9681 38.6311 10.8248ZM28.0769 2.07664L36.4425 10.7692H28.0769V2.07664ZM3.46014 28.4616C3.0367 28.4616 2.69232 28.1174 2.69232 27.6944V16.1519C2.69232 15.7288 3.03678 15.3846 3.46014 15.3846H24.2321C24.6554 15.3846 25 15.7288 25 16.1519V27.6944C25 28.1174 24.6554 28.4616 24.2321 28.4616H3.46014ZM37.3076 36.9257C37.3076 37.7726 36.6149 38.4616 35.7634 38.4616H12.698C11.8465 38.4616 11.1538 37.7719 11.1538 36.9241V30H24.232C25.5038 30 26.5384 28.9657 26.5384 27.6944V16.1519C26.5384 14.8805 25.5038 13.8462 24.232 13.8462H11.1538V3.08141C11.1538 2.23055 11.8465 1.53844 12.698 1.53844H26.5384V11.5384C26.5384 11.9633 26.8829 12.3077 27.3076 12.3077H37.3076V36.9257Z" fill="#323232"/>
<path d="M10.2208 20.5819C10.0765 20.1597 9.86639 19.803 9.58982 19.5115C9.3135 19.22 8.98139 19.0172 8.59373 18.903C8.30529 18.8187 7.88623 18.7769 7.33623 18.7769H4.89795V25.3844H7.40834C7.90123 25.3844 8.2949 25.3379 8.58928 25.2445C8.98295 25.1183 9.29545 24.9426 9.52678 24.7172C9.83334 24.4197 10.0691 24.0307 10.2345 23.5499C10.3697 23.1562 10.4372 22.6876 10.4372 22.1436C10.4371 21.5247 10.365 21.0041 10.2208 20.5819ZM8.92264 23.2953C8.83264 23.5913 8.71607 23.8037 8.57342 23.933C8.43068 24.0622 8.25107 24.154 8.03475 24.208C7.86959 24.2501 7.60053 24.271 7.22803 24.271H6.23193V19.8944H6.83131C7.37537 19.8944 7.74037 19.9155 7.9267 19.9576C8.17615 20.0118 8.38193 20.1155 8.5442 20.2685C8.70631 20.4218 8.83264 20.6352 8.92264 20.9087C9.01279 21.182 9.05803 21.5741 9.05803 22.0851C9.0581 22.5959 9.01287 22.9994 8.92264 23.2953Z" fill="#323232"/>
<path d="M22.9763 22.9553C22.865 23.4392 22.6817 23.7938 22.4264 24.019C22.171 24.2444 21.866 24.3571 21.5113 24.3571C21.0306 24.3571 20.64 24.1798 20.3396 23.8254C20.0391 23.4708 19.8888 22.8757 19.8888 22.0404C19.8888 21.2533 20.0413 20.6838 20.3463 20.3324C20.6514 19.9806 21.0487 19.8048 21.5385 19.8048C21.8931 19.8048 22.1942 19.904 22.4421 20.1023C22.69 20.3007 22.8531 20.5711 22.9312 20.9136L24.2518 20.598C24.1017 20.0692 23.8763 19.6636 23.5759 19.3811C23.071 18.9035 22.4146 18.6646 21.6063 18.6646C20.6806 18.6646 19.9339 18.9688 19.3661 19.5773C18.7982 20.1858 18.5142 21.0398 18.5142 22.1395C18.5142 23.1792 18.7967 23.9988 19.3617 24.5982C19.9264 25.1977 20.6476 25.4974 21.5251 25.4974C22.2341 25.4974 22.8193 25.3224 23.2806 24.9723C23.7418 24.6223 24.0716 24.0867 24.2699 23.3656L22.9763 22.9553Z" fill="#323232"/>
<path d="M16.831 19.5706C16.2464 18.9665 15.4676 18.6646 14.4939 18.6646C13.956 18.6646 13.4814 18.7517 13.0697 18.9259C12.7602 19.0551 12.4754 19.2534 12.2156 19.5209C11.9556 19.7881 11.7506 20.0903 11.6002 20.4268C11.3989 20.8835 11.2983 21.4484 11.2983 22.1214C11.2983 23.1731 11.5883 23.9988 12.1681 24.5981C12.7481 25.1976 13.5295 25.4974 14.512 25.4974C15.4826 25.4974 16.2578 25.1963 16.8378 24.5937C17.4176 23.9912 17.7076 23.1566 17.7076 22.0899C17.7076 21.0142 17.4154 20.1744 16.831 19.5706ZM15.8168 23.7825C15.4758 24.1656 15.0393 24.3571 14.5073 24.3571C13.9756 24.3571 13.5369 24.1641 13.1914 23.7781C12.8458 23.3919 12.6729 22.8248 12.6729 22.0766C12.6729 21.3163 12.8412 20.7477 13.1777 20.3706C13.5143 19.9935 13.9576 19.8048 14.5073 19.8048C15.0573 19.8048 15.4983 19.9911 15.8302 20.3638C16.1623 20.7363 16.3283 21.3013 16.3283 22.0585C16.3283 22.8248 16.1579 23.3994 15.8168 23.7825Z" fill="#323232"/>
</svg>
