<svg width="28" height="28" viewBox="0 0 28 28" fill="none" xmlns="http://www.w3.org/2000/svg">
<mask id="path-2-inside-1" fill="white">
<path d="M18.2843 9.77166L17.2576 5.94002L22.2141 0.961498L23.2408 4.79314"/>
</mask>
<path d="M17.2576 5.94002L16.1946 4.88172L15.5851 5.49387L15.8087 6.32825L17.2576 5.94002ZM22.2141 0.961498L23.663 0.57327L22.9888 -1.94272L21.1511 -0.0968073L22.2141 0.961498ZM19.7332 9.38343L18.7065 5.55179L15.8087 6.32825L16.8354 10.1599L19.7332 9.38343ZM18.3206 6.99833L23.2771 2.0198L21.1511 -0.0968073L16.1946 4.88172L18.3206 6.99833ZM20.7652 1.34973L21.7919 5.18137L24.6896 4.40491L23.663 0.57327L20.7652 1.34973Z" fill="black" mask="url(#path-2-inside-1)"/>
<mask id="path-4-inside-2" fill="white">
<path d="M17.9983 9.40501L21.8122 10.5016L26.8539 5.59804L23.0096 4.50956"/>
</mask>
<path d="M21.8122 10.5016L21.3977 11.9432L22.2341 12.1837L22.858 11.5769L21.8122 10.5016ZM26.8539 5.59804L27.8998 6.67333L29.7617 4.86239L27.2626 4.15478L26.8539 5.59804ZM17.5838 10.8466L21.3977 11.9432L22.2267 9.06004L18.4128 7.96341L17.5838 10.8466ZM22.858 11.5769L27.8998 6.67333L25.8081 4.52275L20.7663 9.42634L22.858 11.5769ZM27.2626 4.15478L23.4183 3.0663L22.601 5.95283L26.4453 7.0413L27.2626 4.15478Z" fill="black" mask="url(#path-4-inside-2)"/>
<path d="M13.6155 13.8461L22.9562 4.72247" stroke="black" stroke-width="1.5"/>
<circle cx="10.8462" cy="16.1538" r="7.09615" stroke="black" stroke-width="1.5"/>
<circle cx="10.8462" cy="16.1538" r="3.40385" stroke="black" stroke-width="1.5"/>
</svg>
