<svg width="40" height="40" viewBox="0 0 40 40" fill="none" xmlns="http://www.w3.org/2000/svg">
<path fill-rule="evenodd" clip-rule="evenodd" d="M18.3492 20.009H22.9502L23.8782 22.753H25.8722L21.6022 11H19.7452L15.4272 22.753H17.4122L18.3492 20.009ZM22.3932 18.37H18.9142L20.6422 13.349H20.6892L22.3932 18.37Z" fill="white"/>
<path fill-rule="evenodd" clip-rule="evenodd" d="M7.00012 31H7.02341C7.00794 31.13 7 31.2615 7 31.394C7 33.1557 8.41832 34.822 10.31 34.822H33V32.822H10.31C9.64968 32.822 9 32.1823 9 31.394C9 30.6235 9.63191 30 10.31 30H33V4H11.4441C8.98965 4 7.00012 5.9899 7.00012 8.445V31ZM11.4441 6C10.0946 6 9.00012 7.0941 9.00012 8.445V28.2807C9.39883 28.1011 9.84069 28 10.31 28H31V6H11.4441Z" fill="white"/>
</svg>
