<svg width="40" height="40" viewBox="0 0 40 40" fill="none" xmlns="http://www.w3.org/2000/svg">
<path fill-rule="evenodd" clip-rule="evenodd" d="M20.0718 28.9099C20.45 28.5324 20.45 27.9197 20.0718 27.5414C19.6936 27.164 19.081 27.1632 18.7036 27.5414C18.3255 27.9197 18.3255 28.5324 18.7036 28.9099C19.081 29.2881 19.6936 29.2881 20.0718 28.9099Z" fill="white"/>
<path fill-rule="evenodd" clip-rule="evenodd" d="M23.7792 19.8583C23.5632 20.0647 23.189 20.3475 22.7942 20.6459C21.5035 21.6193 20.1688 22.6261 20.1688 23.8432V24.3548H18.4002V23.0976C18.4002 21.9804 20.158 20.4473 21.3208 19.4317C21.7136 19.0893 22.0849 18.7664 22.3712 18.4788C23.0678 17.7802 23.4157 16.8136 23.3238 15.8274C23.23 14.8285 22.6965 13.9265 21.8572 13.3522C21.311 12.9784 20.6632 12.7808 19.9841 12.7808C19.3578 12.7808 18.7529 12.952 18.237 13.2768C17.3469 13.8364 16.7753 14.7444 16.6668 15.7668L16.6619 15.8186V15.8695C16.6619 15.9977 16.657 16.0896 16.6502 16.1542C16.6346 16.1552 16.617 16.1552 16.5974 16.1552H15.1093C14.8377 16.1552 14.7253 16.0965 14.7106 16.0808C14.7038 16.072 14.6784 16.0104 14.6774 15.9086C14.739 14.3423 15.4923 12.8855 16.7411 11.911C17.6547 11.1988 18.8086 10.8065 19.99 10.8065C21.0384 10.8065 22.0419 11.1088 22.889 11.6801C24.2834 12.6203 25.1628 14.1026 25.3035 15.7472C25.4354 17.3047 24.8804 18.8036 23.7792 19.8583Z" fill="white"/>
<path fill-rule="evenodd" clip-rule="evenodd" d="M20 6C12.2676 6 6 12.2685 6 20C6 27.7315 12.2676 34 20 34C27.7324 34 34 27.7315 34 20C34 12.2685 27.7324 6 20 6ZM4 20C4 11.164 11.163 4 20 4C28.837 4 36 11.164 36 20C36 28.836 28.837 36 20 36C11.163 36 4 28.836 4 20Z" fill="white"/>
</svg>
