<svg width="55" height="55" viewBox="0 0 55 55" fill="none" xmlns="http://www.w3.org/2000/svg">
<path fill-rule="evenodd" clip-rule="evenodd" d="M19.9223 25.4893C20.0947 20.5671 24.391 16.6261 29.6697 16.6261C34.9481 16.6261 39.2447 20.5671 39.4171 25.4893H19.9223ZM7.49517 47.8491C5.98234 46.3021 5.71488 42.5343 9.05317 35.6685C10.738 40.4983 14.1 44.5453 18.4455 47.1137C16.2843 48.2997 10.547 50.97 7.49517 47.8491V47.8491ZM46.9696 7.43733C48.827 8.68732 50.3168 10.6504 47.7585 17.2613C45.3045 13.3265 41.6126 10.2399 37.2247 8.54328C39.2207 7.58204 44.164 5.54896 46.9696 7.43733V7.43733ZM50.9989 28.6011C50.9989 24.8177 50.0178 21.2632 48.2975 18.1746C55.6304 1.62708 40.4402 4.05081 39.5944 4.21581C36.3762 4.8437 33.3991 5.85176 30.6525 7.12962C30.2475 7.10688 29.8403 7.09439 29.4297 7.09439C19.1801 7.09439 10.6007 14.2224 8.40488 23.7779C13.807 17.7351 17.5876 15.2969 19.8516 14.3212C19.4902 14.6432 19.1365 14.9687 18.7885 15.2967C18.6727 15.4057 18.5611 15.5163 18.4468 15.626C18.2174 15.8461 17.9884 16.0664 17.7647 16.2887C17.6317 16.4209 17.5022 16.5543 17.3712 16.6874C17.1728 16.8887 16.9749 17.0899 16.7812 17.2923C16.6437 17.4361 16.5095 17.5804 16.3745 17.7244C16.1935 17.9175 16.0137 18.1108 15.8373 18.3048C15.7002 18.4556 15.5654 18.6063 15.4308 18.7575C15.2635 18.9452 15.0978 19.133 14.9343 19.3211C14.7988 19.4772 14.6644 19.6333 14.5316 19.7896C14.3766 19.972 14.2236 20.1544 14.0722 20.3368C13.9383 20.4982 13.8048 20.6594 13.6737 20.8206C13.5319 20.995 13.3933 21.1692 13.2549 21.3431C13.1207 21.5116 12.9865 21.68 12.8555 21.8483C12.7307 22.0087 12.6095 22.1683 12.4874 22.3282C12.3496 22.5088 12.2108 22.6894 12.0766 22.8691C11.9807 22.9978 11.8885 23.1251 11.7944 23.2533C10.9421 24.4128 10.1635 25.5499 9.46017 26.6423C9.45838 26.6449 9.45659 26.6476 9.45502 26.6503C9.26986 26.9379 9.09118 27.2213 8.91608 27.5023C8.90669 27.5174 8.89685 27.5328 8.88746 27.5482C8.71214 27.8303 8.54285 28.1074 8.37782 28.3817C8.372 28.3913 8.36597 28.4011 8.36015 28.4107C7.91648 29.1489 7.50501 29.8607 7.13446 30.5303C5.19182 34.0405 4.24611 36.493 4.20518 36.6386C-1.92932 58.5061 17.2166 49.2716 19.8883 47.8932C22.765 49.3102 26.0036 50.1078 29.4297 50.1078C38.8084 50.1078 46.7882 44.1386 49.7582 35.8027H38.4249C36.7479 38.6275 33.5194 40.5409 29.8103 40.5409C24.376 40.5409 19.9708 36.4355 19.9708 31.3711H50.8222C50.9392 30.4643 51 29.5396 51 28.6011H50.9989Z" fill="#1EBBEE"/>
</svg>
