<svg width="32" height="32" viewBox="0 0 32 32" fill="none" xmlns="http://www.w3.org/2000/svg">
<path fill-rule="evenodd" clip-rule="evenodd" d="M15.2019 6.70469C15.1106 5.67357 15.051 5 16.5957 5C18.545 5 19.2828 7.59071 19.2828 8.87314C19.2828 10.1556 17.9389 12.7463 17.9389 12.7463H23.5381C24.9085 12.7463 26 13.8077 26 15.1167C26 15.1167 24.9108 22.387 24.6569 23.4129C24.4021 24.4374 23.5654 25.8905 22.1942 26.0251L12.8055 26.949C12.5609 26.9734 12.1916 27 11.8504 27C11.6089 27 11.3814 26.9867 11.2217 26.949C10.7051 26.827 9.87853 26.3326 9.87853 25.3835V15.3289C9.88398 15.2069 9.9167 15.0746 9.96578 14.9371C9.99772 14.8403 10.0398 14.7464 10.0936 14.6533C10.4894 13.8724 11.395 12.9052 12.3388 11.8973C13.7525 10.3876 15.2518 8.7864 15.2518 7.58258C15.2518 7.26922 15.2258 6.9747 15.2019 6.70469Z" fill="#C4C4C4"/>
<path d="M7.90476 26.9481H6V14.6533H7.90476V26.9481Z" fill="#C4C4C4"/>
</svg>
