<svg xmlns="http://www.w3.org/2000/svg" xmlns:xlink="http://www.w3.org/1999/xlink" version="1.1" x="0px" y="0px" viewBox="0 0 100 100" enable-background="new 0 0 100 100" xml:space="preserve">
    <path
        d="M82.304,61.239L96,45.587H84.066C82.102,25.812,65.42,10.37,45.13,10.37C23.519,10.37,6,27.894,6,49.5  c0,21.61,17.519,39.13,39.13,39.13c12.824,0,24.168-6.19,31.304-15.725v-3.84h-2.042C68.07,78.496,57.317,84.717,45.13,84.717  c-19.42,0-35.217-15.793-35.217-35.217c0-19.42,15.797-35.217,35.217-35.217c18.094,0,33.036,13.726,34.988,31.304h-11.51  L82.304,61.239z" fill="#FFFFFF"></path>
    <path d="M56.87,45.587v-7.826c0-6.481-5.254-11.739-11.739-11.739c-6.483,0-11.739,5.258-11.739,11.739v7.826h-3.913v23.479h31.305  V45.587H56.87z M37.304,37.761c0-4.314,3.512-7.826,7.826-7.826c4.316,0,7.826,3.512,7.826,7.826v7.826H37.304V37.761z" fill="#FFFFFF"></path>
</svg>
