<svg width="26" height="26" viewBox="0 0 26 26" fill="none" xmlns="http://www.w3.org/2000/svg">
<circle cx="13" cy="13" r="12" fill="#E8F3FE" stroke="#E8F3FE"/>
<path d="M16.4028 12.375H9.59722C9.06028 12.375 8.625 12.8329 8.625 13.3977V16.9773C8.625 17.5421 9.06028 18 9.59722 18H16.4028C16.9397 18 17.375 17.5421 17.375 16.9773V13.3977C17.375 12.8329 16.9397 12.375 16.4028 12.375Z" stroke="#B4C2D1" stroke-width="2" stroke-linecap="round" stroke-linejoin="round"/>
<path d="M10.5 12.375V10.4306C10.5 9.78593 10.7634 9.16771 11.2322 8.71189C11.7011 8.25608 12.337 8 13 8C13.663 8 14.2989 8.25608 14.7678 8.71189C15.2366 9.16771 15.5 9.78593 15.5 10.4306V12.375" stroke="#B4C2D1" stroke-width="2" stroke-linecap="round" stroke-linejoin="round"/>
</svg>
