<svg width="25" height="33" viewBox="0 0 25 33" fill="none" xmlns="http://www.w3.org/2000/svg">
<path d="M6.86152 5.33923C6.86152 4.35681 7.6465 3.55949 8.6137 3.55949H16.3828C17.35 3.55949 18.135 4.35681 18.135 5.33923V12.1201H21.6393V5.33923C21.6393 2.39553 19.2809 0 16.3828 0H8.6137C5.7156 0 3.35718 2.39553 3.35718 5.33923V12.1201H6.86152V5.33923Z" fill="#C1C1C1"/>
<path d="M22.1965 14.2557H2.80348C1.26156 14.2557 0 15.5372 0 17.1033V30.1524C0 31.7186 1.26156 33 2.80348 33H22.1965C23.7384 33 25 31.7186 25 30.1524V17.1033C25 15.5372 23.7384 14.2557 22.1965 14.2557ZM21.4957 29.4405H3.50435V17.8152H21.4957V29.4405Z" fill="#C1C1C1"/>
<ellipse cx="12.8788" cy="23.7907" rx="2.27273" ry="2.30233" fill="#C1C1C1"/>
</svg>
