<svg width="211" height="32" viewBox="0 0 211 32" fill="none" xmlns="http://www.w3.org/2000/svg">
<path fill-rule="evenodd" clip-rule="evenodd" d="M16.4878 1.91064V23.6227H6.81037V1.91064H0V29.4114H19.9349V31.9106H26V23.6661H23.3408V1.91064H16.4878Z" fill="#4B4B4B"/>
<path fill-rule="evenodd" clip-rule="evenodd" d="M51.6141 10.6139C51.6141 12.1513 51.3604 13.5067 50.8494 14.6753C50.3381 15.8431 49.6384 16.8197 48.7442 17.6031C47.851 18.386 46.7816 18.9773 45.5348 19.3767C44.2884 19.7765 42.9265 19.9746 41.4525 19.9746H36.2233V29.3804H29.2524V1.55005H41.7516C43.1693 1.55005 44.4789 1.73547 45.6834 2.10545C46.8893 2.4763 47.9294 3.0409 48.8083 3.79487C49.6863 4.54928 50.3738 5.49087 50.8708 6.61525C51.3656 7.74227 51.6141 9.07312 51.6141 10.6139ZM36.181 7.45032V14.1177H40.6892C41.7363 14.1177 42.6152 13.8757 43.3245 13.3914C44.0316 12.9087 44.3869 12.0233 44.3869 10.7415C44.3869 9.5163 43.9972 8.66106 43.2168 8.17712C42.4382 7.6923 41.5397 7.45032 40.5178 7.45032H36.181Z" fill="#4B4B4B"/>
<path fill-rule="evenodd" clip-rule="evenodd" d="M75.255 15.2728H75.1277L72.1519 21.2572L67.9851 29.4229L63.9883 21.5579L60.8848 15.2728H60.716V29.3817H53.9126V1.55005H60.7583L64.3715 8.73208C64.5136 9.01745 64.7534 9.50139 65.0939 10.1857C65.4348 10.8695 65.787 11.5959 66.1576 12.3652C66.5251 13.1358 66.8799 13.8622 67.2209 14.5464C67.5592 15.229 67.7998 15.7015 67.9432 15.9562H68.1547C68.2968 15.6726 68.5226 15.1952 68.8347 14.525C69.1473 13.8551 69.4874 13.1507 69.8549 12.409C70.2241 11.6686 70.5711 10.9633 70.8964 10.2935C71.2224 9.62282 71.4566 9.15947 71.5982 8.9026L75.255 1.55005H82.1426V29.3817H75.255V15.2728Z" fill="#4B4B4B"/>
<path fill-rule="evenodd" clip-rule="evenodd" d="M106.973 15.2728H106.846L103.87 21.2572L99.7034 29.4229L95.707 21.5579L92.6035 15.2728H92.4344V29.3817H85.6313V1.55005H92.4766L96.0894 8.73208C96.2319 9.01745 96.4713 9.50139 96.813 10.1857C97.1531 10.8695 97.5053 11.5959 97.8759 12.3652C98.2434 13.1358 98.5978 13.8622 98.9392 14.5464C99.2775 15.229 99.5181 15.7015 99.6615 15.9562H99.8743C100.015 15.6726 100.242 15.1952 100.553 14.525C100.866 13.8551 101.206 13.1507 101.574 12.409C101.942 11.6686 102.289 10.9633 102.615 10.2935C102.942 9.62282 103.175 9.15947 103.317 8.9026L106.973 1.55005H113.862V29.3817H106.973V15.2728Z" fill="#4B4B4B"/>
<path fill-rule="evenodd" clip-rule="evenodd" d="M139.147 8.65068V7.06778H134.404V0.513916H135.327V6.22087L138.516 6.23052V0.513916H139.458V6.25112H140.09V8.65068H139.147Z" fill="#4B4B4B"/>
<path fill-rule="evenodd" clip-rule="evenodd" d="M143.96 4.26513C143.96 4.06348 143.935 3.87324 143.885 3.69527C143.835 3.51729 143.761 3.36255 143.664 3.23192C143.567 3.10085 143.442 2.99609 143.288 2.91938C143.134 2.84179 142.951 2.80321 142.736 2.80321C142.416 2.80321 142.14 2.93603 141.91 3.20124C141.679 3.46732 141.547 3.82151 141.514 4.26513H143.96ZM142.772 2.05713C143.114 2.05713 143.414 2.11762 143.672 2.23861C143.929 2.35916 144.145 2.52924 144.319 2.74754C144.494 2.96628 144.625 3.23017 144.712 3.53921C144.799 3.84825 144.842 4.19105 144.842 4.56716V4.92047H141.514C141.547 5.41099 141.689 5.78403 141.94 6.03959C142.19 6.29516 142.496 6.42272 142.857 6.42272C143.064 6.42272 143.27 6.38239 143.474 6.30173C143.678 6.22107 143.856 6.11368 144.01 5.9791L144.472 6.53362C144.224 6.76201 143.962 6.92507 143.684 7.02239C143.407 7.12014 143.101 7.1688 142.767 7.1688C142.446 7.1688 142.155 7.11488 141.895 7.00748C141.634 6.90009 141.409 6.74009 141.223 6.52836C141.035 6.31707 140.89 6.0545 140.786 5.74195C140.683 5.4294 140.631 5.0717 140.631 4.66842C140.631 4.26513 140.684 3.90392 140.792 3.58436C140.899 3.26524 141.048 2.9917 141.239 2.76288C141.43 2.5345 141.656 2.35916 141.917 2.23861C142.179 2.11762 142.464 2.05713 142.772 2.05713Z" fill="#4B4B4B"/>
<path fill-rule="evenodd" clip-rule="evenodd" d="M148.984 7.06764V4.86973H146.617V7.06764H145.735V2.13745H146.617V4.12364H148.984V2.13745H149.865V7.06764H148.984Z" fill="#4B4B4B"/>
<path fill-rule="evenodd" clip-rule="evenodd" d="M152.954 2.89379V7.06738H152.072V2.89379H150.547V2.14771H154.488V2.89379H152.954Z" fill="#4B4B4B"/>
<path fill-rule="evenodd" clip-rule="evenodd" d="M157.2 2.79296C156.947 2.79296 156.72 2.85871 156.521 2.99022C156.321 3.12172 156.155 3.27164 156.022 3.44041V5.77597C156.148 5.95087 156.313 6.10079 156.516 6.22572C156.719 6.35022 156.93 6.41246 157.15 6.41246C157.55 6.41246 157.856 6.25729 158.068 5.94737C158.281 5.63745 158.388 5.17893 158.388 4.57268C158.388 4.00633 158.28 3.56841 158.064 3.25849C157.847 2.94814 157.559 2.79296 157.2 2.79296ZM157.411 2.04688C157.651 2.04688 157.884 2.09378 158.111 2.18803C158.337 2.28227 158.536 2.43 158.706 2.63164C158.876 2.83329 159.012 3.0906 159.116 3.40315C159.219 3.71526 159.271 4.08698 159.271 4.51745C159.271 4.98781 159.212 5.39109 159.096 5.72688C158.979 6.06309 158.827 6.33707 158.641 6.54835C158.454 6.76052 158.243 6.91482 158.006 7.01257C157.77 7.10989 157.531 7.15855 157.291 7.15855C157.051 7.15855 156.832 7.11866 156.631 7.03931C156.432 6.95953 156.235 6.82715 156.042 6.64129H156.022V8.66211C155.988 8.67526 155.929 8.70068 155.845 8.7375C155.76 8.77433 155.672 8.81246 155.581 8.85279C155.489 8.89312 155.402 8.9317 155.317 8.96852C155.232 9.00534 155.174 9.03033 155.139 9.04392V2.13761H156.032V2.61148H156.052C156.265 2.40326 156.488 2.25685 156.722 2.17312C156.955 2.0894 157.185 2.04688 157.411 2.04688Z" fill="#4B4B4B"/>
<path fill-rule="evenodd" clip-rule="evenodd" d="M164.73 2.79296C164.477 2.79296 164.251 2.85871 164.051 2.99022C163.852 3.12172 163.686 3.27164 163.552 3.44041V5.77597C163.679 5.95087 163.843 6.10079 164.047 6.22572C164.249 6.35022 164.461 6.41246 164.68 6.41246C165.08 6.41246 165.386 6.25729 165.599 5.94737C165.812 5.63745 165.919 5.17893 165.919 4.57268C165.919 4.00633 165.81 3.56841 165.594 3.25849C165.378 2.94814 165.089 2.79296 164.73 2.79296ZM164.942 2.04688C165.181 2.04688 165.415 2.09378 165.641 2.18803C165.868 2.28227 166.066 2.43 166.236 2.63164C166.406 2.83329 166.542 3.0906 166.646 3.40315C166.749 3.71526 166.801 4.08698 166.801 4.51745C166.801 4.98781 166.743 5.39109 166.626 5.72688C166.509 6.06309 166.358 6.33707 166.171 6.54835C165.984 6.76052 165.773 6.91482 165.537 7.01257C165.3 7.10989 165.061 7.15855 164.822 7.15855C164.582 7.15855 164.362 7.11866 164.162 7.03931C163.962 6.95953 163.765 6.82715 163.572 6.64129H163.552V8.66211C163.518 8.67526 163.459 8.70068 163.375 8.7375C163.29 8.77433 163.202 8.81246 163.111 8.85279C163.02 8.89312 162.932 8.9317 162.847 8.96852C162.763 9.00534 162.704 9.03033 162.669 9.04392V2.13761H163.562V2.61148H163.582C163.795 2.40326 164.019 2.25685 164.252 2.17312C164.485 2.0894 164.715 2.04688 164.942 2.04688Z" fill="#4B4B4B"/>
<path fill-rule="evenodd" clip-rule="evenodd" d="M170.731 5.00096C170.557 4.90057 170.377 4.81772 170.189 4.75416C170.002 4.69016 169.781 4.65816 169.528 4.65816C169.24 4.65816 168.995 4.73707 168.791 4.89531C168.587 5.05312 168.485 5.27668 168.485 5.56556C168.485 5.85444 168.57 6.07624 168.741 6.23098C168.911 6.38572 169.157 6.46287 169.478 6.46287C169.711 6.44972 169.939 6.38572 170.159 6.27131C170.38 6.15734 170.57 6.01575 170.731 5.84786V5.00096ZM170.731 7.06781V6.60403H170.711C170.464 6.83285 170.213 6.98364 169.959 7.05772C169.705 7.13137 169.468 7.16863 169.247 7.16863C169.053 7.16863 168.857 7.14014 168.661 7.08315C168.463 7.02572 168.286 6.93674 168.129 6.81575C167.972 6.69477 167.845 6.53696 167.748 6.34233C167.651 6.14682 167.603 5.91186 167.603 5.63614C167.603 5.38057 167.649 5.15219 167.743 4.95055C167.836 4.7489 167.965 4.57751 168.129 4.43635C168.293 4.2952 168.488 4.18781 168.716 4.11416C168.943 4.04008 169.19 4.00282 169.458 4.00282C169.665 4.00282 169.872 4.02342 170.079 4.06331C170.286 4.10364 170.504 4.1843 170.731 4.30529V3.78101C170.731 3.1226 170.377 2.79296 169.668 2.79296C169.434 2.79296 169.212 2.82145 169.001 2.87844C168.791 2.93586 168.579 3.01477 168.365 3.11559L168.094 2.44008C168.341 2.31909 168.6 2.22353 168.871 2.15296C169.141 2.08238 169.441 2.04688 169.768 2.04688C170.356 2.04688 170.811 2.18452 171.132 2.46024C171.453 2.73597 171.613 3.14627 171.613 3.69027V7.06781H170.731Z" fill="#4B4B4B"/>
<path fill-rule="evenodd" clip-rule="evenodd" d="M175.353 4.49663C175.514 4.5374 175.653 4.59921 175.769 4.68337C175.887 4.76753 175.98 4.85959 176.051 4.96085C176.121 5.06123 176.172 5.16907 176.206 5.28348C176.239 5.39789 176.256 5.50529 176.256 5.60567C176.256 5.86123 176.204 6.08655 176.101 6.28118C175.997 6.47669 175.855 6.638 175.674 6.76556C175.494 6.89312 175.278 6.98912 175.028 7.05269C174.777 7.11669 174.505 7.14868 174.21 7.14868C173.849 7.14868 173.509 7.08425 173.188 6.95669C172.867 6.82912 172.589 6.64764 172.355 6.41225L172.857 5.84764C173.057 6.04271 173.271 6.1843 173.499 6.27153C173.726 6.35877 173.963 6.4026 174.21 6.4026C174.545 6.4026 174.82 6.32677 175.037 6.17553C175.255 6.0243 175.364 5.83449 175.364 5.60567C175.364 5.35055 175.27 5.16381 175.083 5.04633C174.895 4.92885 174.658 4.87011 174.371 4.87011H173.589V4.17444H174.301C174.601 4.17444 174.842 4.10869 175.023 3.97762C175.203 3.84655 175.293 3.69006 175.293 3.50858C175.293 3.33411 175.221 3.17586 175.078 3.03471C174.934 2.894 174.682 2.82342 174.321 2.82342C174.107 2.82342 173.891 2.862 173.674 2.93915C173.457 3.0163 173.261 3.12545 173.087 3.2666L172.616 2.68184C172.863 2.48019 173.139 2.3294 173.443 2.22814C173.747 2.12775 174.067 2.0769 174.401 2.0769C175.009 2.0769 175.457 2.19833 175.745 2.4403C176.032 2.68184 176.176 2.98474 176.176 3.3477C176.176 3.56249 176.114 3.77773 175.99 3.99296C175.867 4.20819 175.654 4.36556 175.353 4.46682V4.49663Z" fill="#4B4B4B"/>
<path fill-rule="evenodd" clip-rule="evenodd" d="M179.308 2.79296C179.055 2.79296 178.829 2.85871 178.629 2.99022C178.43 3.12172 178.264 3.27164 178.13 3.44041V5.77597C178.257 5.95087 178.422 6.10079 178.625 6.22572C178.827 6.35022 179.039 6.41246 179.259 6.41246C179.658 6.41246 179.964 6.25729 180.177 5.94737C180.39 5.63745 180.497 5.17893 180.497 4.57268C180.497 4.00633 180.389 3.56841 180.172 3.25849C179.956 2.94814 179.668 2.79296 179.308 2.79296ZM179.52 2.04688C179.76 2.04688 179.993 2.09378 180.219 2.18803C180.446 2.28227 180.644 2.43 180.814 2.63164C180.984 2.83329 181.121 3.0906 181.224 3.40315C181.327 3.71526 181.379 4.08698 181.379 4.51745C181.379 4.98781 181.321 5.39109 181.204 5.72688C181.087 6.06309 180.936 6.33707 180.749 6.54835C180.563 6.76052 180.351 6.91482 180.115 7.01257C179.878 7.10989 179.64 7.15855 179.4 7.15855C179.16 7.15855 178.94 7.11866 178.74 7.03931C178.54 6.95953 178.344 6.82715 178.15 6.64129H178.13V8.66211C178.096 8.67526 178.037 8.70068 177.953 8.7375C177.868 8.77433 177.78 8.81246 177.689 8.85279C177.598 8.89312 177.51 8.9317 177.425 8.96852C177.341 9.00534 177.282 9.03033 177.248 9.04392V2.13761H178.14V2.61148H178.16C178.373 2.40326 178.597 2.25685 178.83 2.17312C179.063 2.0894 179.293 2.04688 179.52 2.04688Z" fill="#4B4B4B"/>
<path fill-rule="evenodd" clip-rule="evenodd" d="M185.31 5.00096C185.136 4.90057 184.956 4.81772 184.768 4.75416C184.581 4.69016 184.36 4.65816 184.106 4.65816C183.819 4.65816 183.573 4.73707 183.37 4.89531C183.166 5.05312 183.064 5.27668 183.064 5.56556C183.064 5.85444 183.149 6.07624 183.319 6.23098C183.489 6.38572 183.735 6.46287 184.056 6.46287C184.29 6.44972 184.517 6.38572 184.738 6.27131C184.959 6.15734 185.149 6.01575 185.31 5.84786V5.00096ZM185.31 7.06781V6.60403H185.289C185.042 6.83285 184.792 6.98364 184.537 7.05772C184.283 7.13137 184.046 7.16863 183.826 7.16863C183.632 7.16863 183.436 7.14014 183.239 7.08315C183.042 7.02572 182.865 6.93674 182.707 6.81575C182.55 6.69477 182.424 6.53696 182.326 6.34233C182.23 6.14682 182.181 5.91186 182.181 5.63614C182.181 5.38057 182.228 5.15219 182.322 4.95055C182.415 4.7489 182.543 4.57751 182.707 4.43635C182.871 4.2952 183.067 4.18781 183.294 4.11416C183.521 4.04008 183.769 4.00282 184.036 4.00282C184.243 4.00282 184.45 4.02342 184.658 4.06331C184.865 4.10364 185.082 4.1843 185.31 4.30529V3.78101C185.31 3.1226 184.956 2.79296 184.247 2.79296C184.013 2.79296 183.791 2.82145 183.58 2.87844C183.37 2.93586 183.157 3.01477 182.943 3.11559L182.672 2.44008C182.92 2.31909 183.179 2.22353 183.449 2.15296C183.72 2.08238 184.02 2.04688 184.347 2.04688C184.935 2.04688 185.39 2.18452 185.711 2.46024C186.031 2.73597 186.192 3.14627 186.192 3.69027V7.06781H185.31Z" fill="#4B4B4B"/>
<path fill-rule="evenodd" clip-rule="evenodd" d="M189.541 2.944C189.16 2.944 188.841 3.09742 188.583 3.40296C188.326 3.70893 188.197 4.16395 188.197 4.76888C188.197 4.99112 188.224 5.20066 188.277 5.39923C188.331 5.59781 188.411 5.77227 188.518 5.92351C188.625 6.07474 188.76 6.19397 188.924 6.28121C189.088 6.36844 189.28 6.41227 189.5 6.41227C189.721 6.41227 189.912 6.36712 190.072 6.27638C190.233 6.18564 190.365 6.0594 190.468 5.89808C190.571 5.73677 190.65 5.54564 190.704 5.32384C190.757 5.10203 190.784 4.85962 190.784 4.59748C190.784 4.3691 190.757 4.15605 190.704 3.95748C190.65 3.75934 190.571 3.58444 190.468 3.43321C190.365 3.28197 190.236 3.16274 190.082 3.07551C189.928 2.98827 189.748 2.944 189.541 2.944ZM188.127 3.12548C188.26 2.85019 188.468 2.62663 188.749 2.45523C189.029 2.28384 189.33 2.19836 189.651 2.19836C189.952 2.19836 190.228 2.25359 190.478 2.36449C190.729 2.4754 190.945 2.63321 191.125 2.83836C191.306 3.04351 191.446 3.29556 191.546 3.59452C191.646 3.89348 191.696 4.23452 191.696 4.61764C191.696 5.00778 191.643 5.36066 191.536 5.67627C191.429 5.99233 191.277 6.26104 191.08 6.48285C190.882 6.70466 190.647 6.87649 190.373 6.99704C190.098 7.11803 189.795 7.17852 189.46 7.17852C189.06 7.17852 188.715 7.0983 188.427 6.93655C188.14 6.77523 187.905 6.55342 187.721 6.27156C187.537 5.98882 187.402 5.66137 187.315 5.28833C187.228 4.91529 187.185 4.51726 187.185 4.09337C187.185 3.66992 187.216 3.26838 187.28 2.88877C187.343 2.50915 187.457 2.16285 187.621 1.8503C187.784 1.53775 188.008 1.26203 188.292 1.02356C188.577 0.785096 188.935 0.595288 189.37 0.453699C189.531 0.400219 189.683 0.356822 189.826 0.323068C189.97 0.289315 190.114 0.257315 190.258 0.227068C190.401 0.196822 190.549 0.164822 190.699 0.131068C190.849 0.0977534 191.015 0.0539178 191.195 0L191.396 0.645699C191.175 0.732931 190.985 0.796932 190.824 0.836822C190.663 0.877151 190.517 0.912658 190.383 0.942904C190.249 0.973151 190.119 1.00164 189.992 1.02882C189.865 1.05556 189.721 1.09589 189.561 1.14937C189.06 1.33085 188.698 1.58816 188.478 1.92088C188.257 2.25359 188.13 2.65162 188.097 3.11584L188.127 3.12548Z" fill="#4B4B4B"/>
<path fill-rule="evenodd" clip-rule="evenodd" d="M194.77 2.80321C194.561 2.80321 194.379 2.8488 194.221 2.93998C194.063 3.03159 193.929 3.15828 193.818 3.32047C193.707 3.48266 193.624 3.67159 193.566 3.88814C193.509 4.10425 193.481 4.33746 193.481 4.58732C193.481 5.15499 193.588 5.60343 193.803 5.93088C194.018 6.25877 194.337 6.42272 194.76 6.42272C194.968 6.42272 195.154 6.37362 195.318 6.27587C195.482 6.17768 195.622 6.04573 195.736 5.88047C195.85 5.71477 195.936 5.5219 195.993 5.30228C196.05 5.08266 196.078 4.85121 196.078 4.60792C196.078 4.34447 196.051 4.1025 195.997 3.88288C195.944 3.66327 195.862 3.4739 195.751 3.31521C195.64 3.15653 195.505 3.03159 195.343 2.93998C195.182 2.8488 194.991 2.80321 194.77 2.80321ZM194.724 7.1688C194.404 7.1688 194.113 7.11138 193.852 6.99696C193.591 6.88343 193.367 6.71686 193.18 6.49855C192.993 6.28025 192.85 6.01592 192.749 5.70688C192.649 5.39784 192.599 5.04803 192.599 4.6579C192.599 4.24146 192.654 3.87192 192.764 3.54929C192.875 3.22666 193.029 2.95444 193.226 2.73264C193.423 2.51083 193.655 2.3425 193.923 2.22809C194.19 2.11412 194.484 2.05713 194.805 2.05713C195.119 2.05713 195.408 2.11412 195.672 2.22809C195.936 2.3425 196.163 2.50732 196.354 2.72212C196.544 2.93779 196.693 3.19949 196.8 3.50853C196.907 3.81801 196.96 4.16738 196.96 4.55751C196.96 4.97439 196.904 5.34392 196.79 5.66655C196.676 5.98918 196.52 6.2614 196.319 6.48321C196.119 6.70458 195.883 6.87466 195.612 6.99258C195.341 7.10962 195.046 7.1688 194.724 7.1688Z" fill="#4B4B4B"/>
<path fill-rule="evenodd" clip-rule="evenodd" d="M199.959 2.89379V7.06738H199.077V2.89379H197.552V2.14771H201.493V2.89379H199.959Z" fill="#4B4B4B"/>
<path fill-rule="evenodd" clip-rule="evenodd" d="M205.985 2.15771L203.899 4.42665L206.055 7.06774H204.972L202.997 4.55771V7.06774H202.134V2.15771H202.997V4.33591L204.972 2.15771H205.985Z" fill="#4B4B4B"/>
<path fill-rule="evenodd" clip-rule="evenodd" d="M209.845 3.59937L209.193 4.60803L207.579 7.06764H206.696V2.13745H207.579V5.65614H207.619L208.25 4.66808L209.885 2.13745H210.767V7.06764H209.885V3.59937H209.845Z" fill="#4B4B4B"/>
<path fill-rule="evenodd" clip-rule="evenodd" d="M136.771 16.4932L137.292 15.4144L138.275 13.3979H139.147V18.3181H138.265V15.3236H138.225L137.754 16.2815L136.721 18.3286L135.718 16.3218L135.197 15.2737H135.177V18.3181H134.294V13.3979H135.177L136.23 15.4648L136.73 16.4932H136.771Z" fill="#4B4B4B"/>
<path fill-rule="evenodd" clip-rule="evenodd" d="M141.042 20.2138L141.684 18.409C141.61 18.221 141.524 17.9926 141.423 17.723C141.323 17.4547 141.218 17.1672 141.107 16.8616C140.997 16.5552 140.88 16.2401 140.757 15.9135C140.633 15.5878 140.516 15.2704 140.405 14.9609C140.295 14.6519 140.19 14.3626 140.09 14.0939C139.99 13.8252 139.903 13.5928 139.829 13.3982H140.752L141.604 15.8784C141.63 15.9661 141.664 16.0735 141.704 16.201C141.744 16.329 141.788 16.4627 141.834 16.6043C141.881 16.7455 141.925 16.8801 141.965 17.0076C142.005 17.1356 142.042 17.243 142.075 17.3302H142.105C142.132 17.243 142.169 17.1356 142.215 17.0076C142.262 16.8801 142.307 16.7455 142.351 16.6043C142.394 16.4627 142.437 16.329 142.481 16.201C142.525 16.0735 142.559 15.9661 142.586 15.8784L143.459 13.3982H144.341C144.248 13.6603 144.134 13.9746 144 14.3411C143.867 14.7071 143.724 15.0986 143.574 15.5155C143.424 15.9323 143.268 16.3641 143.108 16.8108C142.947 17.2579 142.792 17.6897 142.642 18.1061C142.491 18.5235 142.349 18.9145 142.215 19.2809C142.082 19.6474 141.968 19.9582 141.875 20.2138H141.042Z" fill="#4B4B4B"/>
<path fill-rule="evenodd" clip-rule="evenodd" d="M146.376 15.8442C146.376 16.1392 146.371 16.4391 146.361 16.7442C146.351 17.0493 146.294 17.3259 146.191 17.574C146.087 17.8225 145.92 18.0255 145.689 18.1829C145.459 18.3398 145.123 18.4191 144.681 18.4191L144.622 17.6932C144.829 17.6529 144.994 17.6025 145.118 17.5415C145.241 17.481 145.335 17.3956 145.398 17.2847C145.462 17.1738 145.504 17.0326 145.524 16.8612C145.544 16.6898 145.554 16.4763 145.554 16.2208V13.3982H149.013V18.3183H148.131V14.1443H146.376V15.8442Z" fill="#4B4B4B"/>
<path fill-rule="evenodd" clip-rule="evenodd" d="M153.185 16.7856C153.185 16.5371 153.103 16.342 152.939 16.2009C152.775 16.0602 152.553 15.9891 152.272 15.9891H150.989V17.5922H152.283C152.556 17.5922 152.775 17.5282 152.939 17.4007C153.103 17.2731 153.185 17.0684 153.185 16.7856ZM154.067 16.7957C154.067 17.32 153.911 17.7049 153.6 17.9499C153.288 18.1958 152.864 18.3181 152.328 18.3181H150.106V13.3879H150.989V15.2737H152.287C152.843 15.2737 153.279 15.4066 153.594 15.6718C153.91 15.937 154.067 16.3118 154.067 16.7957Z" fill="#4B4B4B"/>
<path fill-rule="evenodd" clip-rule="evenodd" d="M156.945 14.1443V18.3179H156.063V14.1443H154.538V13.3982H158.479V14.1443H156.945Z" fill="#4B4B4B"/>
<path fill-rule="evenodd" clip-rule="evenodd" d="M162.269 14.8499L161.617 15.8585L160.003 18.3181H159.121V13.3879H160.003V16.9066H160.044L160.675 15.9186L162.309 13.3879H163.192V18.3181H162.309V14.8499H162.269Z" fill="#4B4B4B"/>
<path fill-rule="evenodd" clip-rule="evenodd" d="M166.751 16.4932L167.272 15.4144L168.255 13.3979H169.127V18.3181H168.245V15.3236H168.205L167.734 16.2815L166.701 18.3286L165.698 16.3218L165.177 15.2737H165.157V18.3181H164.274V13.3979H165.157L166.21 15.4648L166.71 16.4932H166.751Z" fill="#4B4B4B"/>
<path fill-rule="evenodd" clip-rule="evenodd" d="M173.449 15.5154C173.449 15.3137 173.424 15.1235 173.374 14.9455C173.323 14.7675 173.25 14.6128 173.153 14.4822C173.056 14.3511 172.931 14.2463 172.777 14.1696C172.623 14.092 172.44 14.0535 172.225 14.0535C171.905 14.0535 171.629 14.1863 171.398 14.4515C171.168 14.7176 171.036 15.0718 171.002 15.5154H173.449ZM172.261 13.3074C172.602 13.3074 172.902 13.3679 173.16 13.4889C173.418 13.6094 173.634 13.7795 173.808 13.9978C173.983 14.2165 174.113 14.4804 174.201 14.7895C174.288 15.0985 174.331 15.4413 174.331 15.8174V16.1703H171.002C171.036 16.6612 171.178 17.0343 171.428 17.2898C171.679 17.5454 171.985 17.673 172.346 17.673C172.553 17.673 172.758 17.6322 172.962 17.552C173.166 17.4713 173.345 17.3639 173.499 17.2289L173.96 17.7839C173.713 18.0122 173.45 18.1753 173.173 18.2726C172.895 18.3699 172.59 18.419 172.256 18.419C171.934 18.419 171.644 18.3651 171.383 18.2577C171.122 18.1503 170.898 17.9903 170.712 17.7786C170.524 17.5669 170.379 17.3047 170.275 16.9922C170.172 16.6796 170.12 16.3219 170.12 15.9187C170.12 15.5154 170.173 15.1542 170.28 14.8346C170.388 14.5155 170.537 14.2419 170.728 14.0131C170.919 13.7847 171.145 13.6094 171.406 13.4889C171.668 13.3679 171.952 13.3074 172.261 13.3074Z" fill="#4B4B4B"/>
<path fill-rule="evenodd" clip-rule="evenodd" d="M178.502 14.1341H176.677L176.617 15.223C176.59 15.6263 176.547 16.0331 176.486 16.4429C176.426 16.8528 176.309 17.2359 176.136 17.5923H178.502V14.1341ZM174.682 17.5923H175.183C175.277 17.4713 175.357 17.3451 175.424 17.214C175.491 17.0834 175.549 16.9234 175.599 16.7353C175.649 16.5473 175.69 16.3255 175.72 16.0699C175.75 15.8148 175.775 15.5022 175.795 15.1323L175.885 13.4082H179.384V17.5923H179.836V19.76H178.993V18.3182H175.524V19.76H174.682V17.5923Z" fill="#4B4B4B"/>
<path fill-rule="evenodd" clip-rule="evenodd" d="M183.566 14.8499L182.914 15.8585L181.3 18.3181H180.417V13.3879H181.3V16.9066H181.34L181.972 15.9186L183.606 13.3879H184.488V18.3181H183.606V14.8499H183.566Z" fill="#4B4B4B"/>
<path fill-rule="evenodd" clip-rule="evenodd" d="M186.734 11.6135C186.768 11.802 186.841 11.9563 186.955 12.0777C187.068 12.1983 187.232 12.2588 187.446 12.2588C187.673 12.2588 187.844 12.19 187.958 12.0523C188.071 11.9147 188.131 11.7687 188.138 11.6135H188.79C188.783 11.7415 188.756 11.8792 188.709 12.0269C188.663 12.1746 188.587 12.311 188.484 12.4354C188.38 12.5595 188.245 12.6625 188.078 12.7427C187.911 12.8234 187.704 12.8642 187.456 12.8642C187.202 12.8642 186.99 12.8234 186.819 12.7427C186.649 12.6625 186.51 12.5595 186.403 12.4354C186.296 12.311 186.219 12.1746 186.173 12.0269C186.125 11.8792 186.099 11.7415 186.092 11.6135H186.734ZM188.529 14.8499L187.877 15.8586L186.263 18.3182H185.381V13.388H186.263V16.9067H186.303L186.935 15.9186L188.569 13.388H189.451V18.3182H188.569V14.8499H188.529Z" fill="#4B4B4B"/>
<path fill-rule="evenodd" clip-rule="evenodd" d="M193.592 18.3181V16.1198H191.226V18.3181H190.344V13.3879H191.226V15.3741H193.592V13.3879H194.474V18.3181H193.592Z" fill="#4B4B4B"/>
<path fill-rule="evenodd" clip-rule="evenodd" d="M200.05 18.3181H200.912V13.3879H200.05V18.3181ZM198.626 16.7856C198.626 16.5371 198.545 16.342 198.385 16.2009C198.225 16.0602 198 15.9891 197.713 15.9891H196.419V17.5922H197.723C197.998 17.5922 198.216 17.5282 198.38 17.4007C198.544 17.2731 198.626 17.0684 198.626 16.7856ZM199.508 16.7957C199.508 17.32 199.353 17.7049 199.042 17.9499C198.731 18.1958 198.305 18.3181 197.763 18.3181H195.558V13.3879H196.419V15.2737H197.723C198.278 15.2737 198.714 15.4061 199.032 15.6718C199.349 15.937 199.508 16.3118 199.508 16.7957Z" fill="#4B4B4B"/>
<path fill-rule="evenodd" clip-rule="evenodd" d="M204.642 18.3181L203.609 16.4024L202.566 18.3181H201.594L203.127 15.7773L201.714 13.3979H202.696L203.629 15.1422L204.572 13.3979H205.544L204.11 15.7471C204.137 15.7879 204.191 15.8733 204.27 16.0044C204.351 16.1355 204.444 16.2898 204.552 16.4678C204.658 16.6462 204.771 16.8342 204.887 17.0324C205.004 17.2309 205.116 17.419 205.223 17.597C205.33 17.7754 205.422 17.9297 205.499 18.0607C205.576 18.1923 205.628 18.2777 205.654 18.3181H204.642Z" fill="#4B4B4B"/>
<path fill-rule="evenodd" clip-rule="evenodd" d="M136.771 27.7437L137.292 26.6649L138.275 24.6484H139.147V29.5685H138.265V26.5741H138.225L137.754 27.5319L136.721 29.5791L135.718 27.5723L135.197 26.5237H135.177V29.5685H134.294V24.6484H135.177L136.23 26.7153L136.73 27.7437H136.771Z" fill="#4B4B4B"/>
<path fill-rule="evenodd" clip-rule="evenodd" d="M143.168 27.5017C142.994 27.4009 142.814 27.3185 142.626 27.2549C142.439 27.1909 142.218 27.1589 141.965 27.1589C141.677 27.1589 141.432 27.2378 141.228 27.396C141.024 27.5539 140.922 27.7774 140.922 28.0663C140.922 28.3552 141.007 28.577 141.178 28.7317C141.348 28.8865 141.594 28.9636 141.915 28.9636C142.148 28.9505 142.376 28.8865 142.596 28.7716C142.817 28.6581 143.008 28.5165 143.168 28.3486V27.5017ZM143.168 29.5685V29.1048H143.148C142.901 29.3336 142.65 29.4844 142.396 29.558C142.142 29.6321 141.905 29.6694 141.684 29.6694C141.49 29.6694 141.294 29.6409 141.098 29.5834C140.9 29.5265 140.723 29.4375 140.566 29.3165C140.409 29.1955 140.282 29.0377 140.185 28.8426C140.088 28.6476 140.04 28.4126 140.04 28.1369C140.04 27.8813 140.086 27.6529 140.18 27.4513C140.273 27.2496 140.402 27.0782 140.566 26.9371C140.73 26.7959 140.925 26.6885 141.153 26.6145C141.38 26.5408 141.627 26.5036 141.895 26.5036C142.102 26.5036 142.309 26.5237 142.516 26.564C142.723 26.6044 142.941 26.685 143.168 26.806V26.2817C143.168 25.6229 142.814 25.2937 142.105 25.2937C141.871 25.2937 141.649 25.3222 141.438 25.3792C141.228 25.4366 141.016 25.5155 140.802 25.6163L140.531 24.9408C140.778 24.8198 141.037 24.7238 141.308 24.6533C141.578 24.5831 141.878 24.5476 142.205 24.5476C142.793 24.5476 143.248 24.6853 143.569 24.961C143.89 25.2367 144.05 25.6466 144.05 26.191V29.5685H143.168Z" fill="#4B4B4B"/>
<path fill-rule="evenodd" clip-rule="evenodd" d="M147.138 25.3943V29.5684H146.256V25.3943H144.732V24.6487H148.673V25.3943H147.138Z" fill="#4B4B4B"/>
<path fill-rule="evenodd" clip-rule="evenodd" d="M152.543 26.7659C152.543 26.5642 152.518 26.374 152.468 26.196C152.418 26.018 152.344 25.8633 152.247 25.7322C152.15 25.6011 152.025 25.4968 151.871 25.4197C151.717 25.3425 151.534 25.3039 151.32 25.3039C150.999 25.3039 150.723 25.4368 150.493 25.702C150.262 25.9676 150.13 26.3218 150.097 26.7659H152.543ZM151.355 24.5579C151.697 24.5579 151.997 24.6184 152.255 24.7393C152.512 24.8599 152.728 25.03 152.902 25.2483C153.077 25.4666 153.208 25.7309 153.295 26.0399C153.382 26.349 153.425 26.6918 153.425 27.0679V27.4208H150.097C150.13 27.9117 150.272 28.2848 150.523 28.5403C150.773 28.7959 151.079 28.9235 151.44 28.9235C151.647 28.9235 151.853 28.8827 152.057 28.8025C152.261 28.7218 152.439 28.6144 152.593 28.4794L153.055 29.0344C152.807 29.2627 152.545 29.4258 152.267 29.5231C151.99 29.6204 151.684 29.6695 151.35 29.6695C151.029 29.6695 150.738 29.6156 150.478 29.5082C150.217 29.4008 149.992 29.2408 149.806 29.0291C149.618 28.8174 149.473 28.5552 149.37 28.2427C149.266 27.9301 149.214 27.5724 149.214 27.1691C149.214 26.7659 149.267 26.4047 149.375 26.0851C149.482 25.766 149.631 25.492 149.822 25.2632C150.013 25.0352 150.239 24.8599 150.5 24.7393C150.762 24.6184 151.047 24.5579 151.355 24.5579Z" fill="#4B4B4B"/>
<path fill-rule="evenodd" clip-rule="evenodd" d="M156.388 25.2937C156.135 25.2937 155.908 25.3594 155.709 25.4909C155.509 25.6225 155.343 25.7724 155.21 25.9407V28.2763C155.336 28.4516 155.501 28.6015 155.704 28.726C155.907 28.8509 156.118 28.9132 156.338 28.9132C156.738 28.9132 157.044 28.758 157.256 28.4481C157.469 28.1382 157.576 27.6797 157.576 27.0734C157.576 26.5071 157.468 26.0691 157.252 25.7588C157.035 25.4489 156.747 25.2937 156.388 25.2937ZM156.599 24.5476C156.839 24.5476 157.072 24.5945 157.299 24.6888C157.525 24.783 157.724 24.9307 157.894 25.1324C158.064 25.334 158.2 25.5913 158.304 25.9039C158.407 26.216 158.459 26.5877 158.459 27.0177C158.459 27.4885 158.4 27.8918 158.284 28.2276C158.167 28.5638 158.015 28.8374 157.829 29.0491C157.642 29.2613 157.431 29.4156 157.194 29.5129C156.958 29.6106 156.719 29.6593 156.479 29.6593C156.239 29.6593 156.02 29.6194 155.819 29.54C155.62 29.4603 155.423 29.3274 155.23 29.1416H155.21V31.1628C155.176 31.176 155.117 31.2014 155.033 31.2382C154.948 31.2751 154.86 31.3132 154.769 31.3535C154.677 31.3939 154.59 31.4324 154.505 31.4693C154.42 31.5061 154.362 31.5311 154.327 31.5446V24.6383H155.22V25.1122H155.24C155.453 24.904 155.676 24.7576 155.91 24.6739C156.143 24.5897 156.373 24.5476 156.599 24.5476Z" fill="#4B4B4B"/>
<path fill-rule="evenodd" clip-rule="evenodd" d="M162.609 26.1003L161.958 27.1086L160.343 29.5686H159.461V24.6384H160.343V28.1571H160.384L161.015 27.1691L162.649 24.6384H163.532V29.5686H162.649V26.1003H162.609Z" fill="#4B4B4B"/>
<path fill-rule="evenodd" clip-rule="evenodd" d="M167.553 27.5017C167.379 27.4009 167.199 27.3185 167.011 27.2549C166.824 27.1909 166.603 27.1589 166.349 27.1589C166.062 27.1589 165.816 27.2378 165.613 27.396C165.409 27.5539 165.307 27.7774 165.307 28.0663C165.307 28.3552 165.392 28.577 165.563 28.7317C165.733 28.8865 165.978 28.9636 166.299 28.9636C166.533 28.9505 166.761 28.8865 166.981 28.7716C167.202 28.6581 167.392 28.5165 167.553 28.3486V27.5017ZM167.553 29.5685V29.1048H167.533C167.285 29.3336 167.035 29.4844 166.781 29.558C166.526 29.6321 166.289 29.6694 166.069 29.6694C165.875 29.6694 165.679 29.6409 165.482 29.5834C165.285 29.5265 165.108 29.4375 164.951 29.3165C164.794 29.1955 164.667 29.0377 164.569 28.8426C164.473 28.6476 164.424 28.4126 164.424 28.1369C164.424 27.8813 164.471 27.6529 164.565 27.4513C164.658 27.2496 164.787 27.0782 164.951 26.9371C165.114 26.7959 165.31 26.6885 165.537 26.6145C165.764 26.5408 166.012 26.5036 166.279 26.5036C166.486 26.5036 166.693 26.5237 166.901 26.564C167.108 26.6044 167.326 26.685 167.553 26.806V26.2817C167.553 25.6229 167.199 25.2937 166.49 25.2937C166.256 25.2937 166.034 25.3222 165.823 25.3792C165.613 25.4366 165.4 25.5155 165.186 25.6163L164.916 24.9408C165.163 24.8198 165.422 24.7238 165.692 24.6533C165.963 24.5831 166.263 24.5476 166.59 24.5476C167.178 24.5476 167.633 24.6853 167.954 24.961C168.275 25.2367 168.435 25.6466 168.435 26.191V29.5685H167.553Z" fill="#4B4B4B"/>
<path fill-rule="evenodd" clip-rule="evenodd" d="M170.861 27.0947C170.861 27.3897 170.856 27.6896 170.846 27.9947C170.836 28.2998 170.779 28.5764 170.675 28.8245C170.572 29.073 170.405 29.276 170.174 29.4333C169.944 29.5903 169.608 29.6696 169.166 29.6696L169.106 28.9437C169.314 28.9034 169.479 28.853 169.603 28.792C169.726 28.7315 169.82 28.6461 169.883 28.5351C169.947 28.4242 169.989 28.2831 170.009 28.1117C170.029 27.9403 170.039 27.7268 170.039 27.4713V24.6487H173.498V29.5688H172.615V25.3943H170.861V27.0947Z" fill="#4B4B4B"/>
<path fill-rule="evenodd" clip-rule="evenodd" d="M176.672 25.3039C176.464 25.3039 176.281 25.3495 176.123 25.4407C175.966 25.5323 175.831 25.659 175.72 25.8212C175.61 25.9834 175.526 26.1723 175.469 26.3889C175.412 26.605 175.383 26.8382 175.383 27.0881C175.383 27.6557 175.491 28.1037 175.706 28.4316C175.92 28.7595 176.239 28.9235 176.662 28.9235C176.87 28.9235 177.056 28.8744 177.22 28.7762C177.385 28.678 177.524 28.5465 177.638 28.3812C177.752 28.2155 177.838 28.0226 177.895 27.803C177.952 27.5834 177.98 27.3519 177.98 27.1082C177.98 26.8452 177.953 26.6032 177.9 26.3836C177.846 26.164 177.764 25.9746 177.653 25.8159C177.543 25.6573 177.407 25.5323 177.245 25.4407C177.084 25.3495 176.894 25.3039 176.672 25.3039ZM176.627 29.6695C176.306 29.6695 176.015 29.6121 175.755 29.4977C175.494 29.3837 175.27 29.2176 175.083 28.9988C174.896 28.7805 174.752 28.5167 174.651 28.2072C174.552 27.8981 174.501 27.5488 174.501 27.1586C174.501 26.7422 174.556 26.3727 174.666 26.0496C174.777 25.7274 174.931 25.4552 175.128 25.2334C175.325 25.0111 175.557 24.8432 175.825 24.7288C176.092 24.6148 176.387 24.5579 176.707 24.5579C177.021 24.5579 177.31 24.6148 177.574 24.7288C177.839 24.8432 178.066 25.0081 178.256 25.2228C178.447 25.4385 178.595 25.7002 178.702 26.0093C178.809 26.3187 178.863 26.6681 178.863 27.0582C178.863 27.4747 178.806 27.8447 178.693 28.1668C178.578 28.4899 178.422 28.7621 178.221 28.9839C178.021 29.2053 177.785 29.3754 177.514 29.4929C177.244 29.6104 176.948 29.6695 176.627 29.6695Z" fill="#4B4B4B"/>
<path fill-rule="evenodd" clip-rule="evenodd" d="M180.708 27.3202V28.8527H181.995C182.314 28.8527 182.546 28.7839 182.689 28.6458C182.832 28.5082 182.903 28.3219 182.903 28.0865C182.903 27.8379 182.818 27.6477 182.649 27.5166C182.479 27.3855 182.261 27.3202 181.995 27.3202H180.708ZM180.708 25.3941V26.6044H181.974C182.207 26.6044 182.388 26.5461 182.518 26.4295C182.648 26.3129 182.713 26.1678 182.713 25.9946C182.713 25.8145 182.655 25.6694 182.538 25.5593C182.422 25.4493 182.241 25.3941 181.994 25.3941H180.708ZM182.944 26.9169C183.197 26.991 183.401 27.1352 183.555 27.3505C183.709 27.5657 183.786 27.8072 183.786 28.0764C183.786 28.5472 183.631 28.9132 183.321 29.1749C183.01 29.4375 182.582 29.5685 182.035 29.5685H179.825V24.6484H182.071C182.292 24.6484 182.494 24.6756 182.678 24.7291C182.861 24.783 183.022 24.8637 183.159 24.9711C183.296 25.0789 183.403 25.21 183.48 25.3643C183.556 25.519 183.595 25.7005 183.595 25.9087C183.595 26.1169 183.54 26.312 183.43 26.4935C183.319 26.675 183.157 26.813 182.944 26.9068V26.9169Z" fill="#4B4B4B"/>
<path fill-rule="evenodd" clip-rule="evenodd" d="M123.693 29.38H124.558V1.55005H123.693V29.38Z" fill="#4B4B4B"/>
</svg>
