<svg width="148" height="29" viewBox="0 0 148 29" fill="none" xmlns="http://www.w3.org/2000/svg">
<g clip-path="url(#clip0)">
<path d="M48.1281 17.157L48.6049 18.0756C47.048 19.0205 45.261 19.5048 43.4464 19.4736C38.9165 19.4736 36.3047 17.0289 36.3047 11.7625C36.3047 6.71199 38.3963 3.64876 43.7498 3.64876C45.2458 3.62034 46.735 3.85817 48.1497 4.35144C48.1064 5.37983 48.1064 6.51802 48.1497 7.54275H47.178L46.9251 6.58755C46.5639 5.44571 45.9101 4.66252 43.8582 4.66252C40.6432 4.66252 39.8268 7.06698 39.8268 11.1989C39.8268 15.1331 40.6215 18.0646 44.3531 18.0646C45.6662 18.0914 46.9647 17.7818 48.1281 17.1643V17.157ZM55.1361 4.87844C54.1897 4.87844 54.0524 5.11633 54.0524 5.77509V9.40558H54.9085C59.0484 9.40558 61.9888 9.88866 61.9888 14.1047C61.9888 18.2146 59.6986 19.2284 56.0067 19.2284H49.9632V18.7526C50.7182 18.577 50.8229 18.3574 50.8229 17.5266V5.61406C50.8229 4.78329 50.7182 4.56736 49.9632 4.39535V3.91226H61.1977C61.1616 5.01019 61.1616 6.10813 61.1977 7.23533H60.3813L60.1899 6.58755C59.7166 5.01385 59.1712 4.86014 57.2133 4.86014L55.1361 4.87844ZM55.8586 18.2549C57.8201 18.2549 58.5968 16.9227 58.5968 14.2548C58.5968 11.7661 57.9249 10.3644 55.3818 10.3644H54.0669V16.9191C54.0669 17.8999 54.3306 18.2512 55.4071 18.2512L55.8586 18.2549ZM68.5381 4.87844C67.8951 4.87844 67.7904 5.05411 67.7904 5.57746V10.3352H69.7952C70.6333 10.3352 71.9627 10.251 72.4684 9.88135V11.8064C71.9482 11.4404 70.6333 11.3489 69.7952 11.3489H67.7904V17.0252C67.7904 17.9402 68.1516 18.2476 70.142 18.2476H70.5719C72.5334 18.2476 73.0536 18.1158 73.4835 16.2164L73.6172 15.6455H74.5672C74.5239 16.8239 74.5239 18.0316 74.5672 19.2064H63.6867V18.7307C64.4381 18.555 64.55 18.3354 64.55 17.5046V5.61406C64.55 4.78329 64.4417 4.56736 63.6867 4.39535V3.91226H74.2132C74.1699 5.01019 74.1699 6.10813 74.2132 7.23533H73.3968L73.1981 6.58755C72.7249 5.01385 72.183 4.86014 70.2179 4.86014L68.5381 4.87844ZM76.5035 19.2174V18.7416C77.2621 18.566 77.3632 18.3464 77.3632 17.5156V5.61406C77.3632 4.78329 77.2621 4.56736 76.5071 4.39535V3.91226H82.7601C85.7621 3.91226 88.0053 4.64422 88.0053 8.30399C88.0053 12.0443 85.762 13.1605 82.1135 13.1605H80.6035V17.5083C80.6035 18.3391 80.7119 18.5587 81.4705 18.7343V19.2101L76.5035 19.2174ZM82.1316 12.198C84.1437 12.198 84.6205 10.5584 84.6205 8.17223C84.6205 6.15936 83.9306 4.87844 81.9004 4.87844H81.5392C80.8889 4.87844 80.5891 4.98824 80.5891 5.70921V12.1943L82.1316 12.198ZM94.5438 4.87844C93.5937 4.87844 93.4601 5.11633 93.4601 5.77509V9.40558H94.2837C98.4235 9.40558 101.36 9.88866 101.36 14.1047C101.36 18.2146 99.0701 19.2284 95.3855 19.2284H89.3564V18.7526C90.1114 18.577 90.2234 18.3574 90.2234 17.5266V5.61406C90.2234 4.78329 90.1114 4.56736 89.3564 4.39535V3.91226H100.602C100.558 5.01019 100.558 6.10813 100.602 7.23533H99.7782L99.5831 6.58755C99.1135 5.01385 98.5716 4.86014 96.6101 4.86014L94.5438 4.87844ZM95.2663 18.2549C97.2278 18.2549 98.0045 16.9227 98.0045 14.2548C98.0045 11.7661 97.3362 10.3644 94.7894 10.3644H93.4745V16.9191C93.4745 17.8999 93.7346 18.2512 94.8147 18.2512L95.2663 18.2549ZM112.396 19.2174C112.137 18.0015 111.798 16.8046 111.381 15.6345L110.738 13.6875H105.926C105.432 15.2173 105.067 16.4653 104.868 17.3473C104.729 17.9668 104.622 18.5935 104.55 19.2247H101.805C102.613 17.7794 103.313 16.2746 103.9 14.7232L106.681 7.76966C107.31 6.22158 107.404 5.74215 107.404 5.30298C107.404 4.99556 107.317 4.57102 106.541 4.40633V3.91226H110.865C110.961 4.69014 111.15 5.45329 111.428 6.18498L114.6 15.3344C115.041 16.6652 115.582 17.9597 116.218 19.2064L112.396 19.2174ZM110.409 12.6628L108.372 6.4924L106.28 12.6554L110.409 12.6628ZM127.323 11.3306H121.481V17.5156C121.481 18.3464 121.59 18.566 122.348 18.7416V19.2174H117.385V18.7416C118.14 18.566 118.248 18.3464 118.248 17.5156V5.61406C118.248 4.78329 118.14 4.56736 117.385 4.39535V3.91226H122.348V4.39169C121.59 4.56736 121.481 4.78329 121.481 5.6104V10.3132H127.305V5.61406C127.305 4.78329 127.2 4.56736 126.445 4.39535V3.91226H131.405V4.39169C130.65 4.56736 130.541 4.78329 130.541 5.6104V17.5083C130.541 18.3391 130.65 18.5587 131.405 18.7343V19.2101H126.434V18.7343C127.189 18.5587 127.294 18.3391 127.294 17.5083L127.323 11.3306ZM134.678 5.62138C134.678 4.79061 134.569 4.57468 133.818 4.40267V3.91226H138.781V4.39169C138.023 4.56736 137.918 4.78329 137.918 5.6104V17.5083C137.918 18.3391 138.023 18.5587 138.781 18.7343V19.2101H133.803V18.7343C134.555 18.5587 134.663 18.3391 134.663 17.5083L134.678 5.62138ZM142.69 12.5017C143.748 14.0059 146.208 17.3802 147.996 19.2101H142.939C142.255 17.6187 141.425 16.0957 140.461 14.661L138.171 11.1879L140.158 8.58579C141.342 7.03405 142.874 4.95896 143.286 3.91226H146.822V3.93422C145.399 4.76133 143.004 7.22801 142.314 7.95997L140.739 9.66542L142.69 12.5017Z" fill="#5E9849"/>
<path d="M148 23.0345H37.4751V24.568H148V23.0345Z" fill="#5E9849"/>
<path d="M9.05267 18.1598L0.036124 12.9043C0 13.2337 0 13.5704 0 13.9071C0 14.1267 0 14.3426 0 14.5586C0.030411 15.2586 0.108869 15.9556 0.234806 16.6446C0.54571 18.3627 1.15349 20.0117 2.03017 21.5158C2.26136 21.9184 2.51062 22.3246 2.77793 22.6906V22.7125L2.80322 22.7491C4.60067 25.2667 7.11932 27.1629 10.0172 28.1802C10.2412 28.2571 10.4687 28.3339 10.6963 28.3998L10.7541 28.4181C12.642 28.9675 14.6182 29.1354 16.5701 28.9122L16.7724 28.8865C20.1472 28.4581 23.2736 26.866 25.6264 24.3777L25.7239 24.2716C26.1943 23.7655 26.63 23.2275 27.028 22.6613C28.2557 20.9202 29.1029 18.9339 29.5133 16.8349L29.535 16.7398C29.7042 15.8127 29.7888 14.8719 29.7878 13.9291C29.7878 13.8229 29.7878 13.7132 29.7878 13.6034C29.7754 12.9453 29.7199 12.2887 29.6217 11.6381C29.3794 10.0314 28.8842 8.4745 28.155 7.02675L9.05267 18.1598ZM9.05267 14.3609L0.657457 9.46782C0.621333 9.58859 0.585209 9.70571 0.552697 9.8338C0.425059 10.2583 0.325116 10.6914 0.252868 11.133L9.04906 16.2567L27.3386 5.60676C27.0785 5.20785 26.8004 4.82357 26.5078 4.4576L26.3597 4.27461L9.05267 14.3609ZM9.05267 10.5658L1.95792 6.43021C1.6906 6.90964 1.44857 7.39639 1.23544 7.89412L9.05267 12.4432L25.2254 3.03761C24.8099 2.6359 24.3734 2.25717 23.9177 1.90308L9.05267 10.5658ZM9.05267 6.76325L3.87972 3.75492C3.50926 4.16572 3.16307 4.59833 2.84296 5.05048L9.04906 8.66633L22.3969 0.878344C21.8405 0.548304 21.2637 0.254915 20.6701 0L9.05267 6.76325Z" fill="#5E9849"/>
</g>
<defs>
<clipPath id="clip0">
<rect width="148" height="29" fill="white"/>
</clipPath>
</defs>
</svg>
