<svg width="40" height="40" viewBox="0 0 40 40" fill="none" xmlns="http://www.w3.org/2000/svg">
<circle cx="20" cy="20" r="19.5" fill="white" stroke="#E8F3FE"/>
<path d="M21.75 11H15.5C15.1022 11 14.7206 11.1686 14.4393 11.4686C14.158 11.7687 14 12.1757 14 12.6V26.4C14 26.8243 14.158 27.2313 14.4393 27.5314C14.7206 27.8314 15.1022 28 15.5 28H25.5C25.8978 28 26.2794 27.8314 26.5607 27.5314C26.842 27.2313 27 26.8243 27 26.4V16.6M21.75 11L27 16.6M21.75 11L21.75 16.6L27 16.6M18 24H23M18 21H23" stroke="#B4C2D1" stroke-width="2" stroke-linecap="round" stroke-linejoin="round"/>
</svg>
