<svg width="201" height="250" viewBox="0 0 201 250" fill="none" xmlns="http://www.w3.org/2000/svg">
<path fill-rule="evenodd" clip-rule="evenodd" d="M166.457 153.362C164.002 153.02 161.474 152.841 158.891 152.841C135.638 152.841 116.786 167.339 116.786 185.227C116.786 203.105 135.638 217.614 158.891 217.614C179.48 217.614 196.619 206.238 200.276 191.222C200.749 189.279 200.996 187.275 200.996 185.227V0L69.4171 43.1818V192.32C68.4633 191.733 67.4756 191.177 66.4566 190.655C61.7706 188.252 56.4229 186.55 50.6671 185.748C48.2129 185.406 45.6844 185.227 43.1014 185.227C19.8487 185.227 0.996094 199.726 0.996094 217.614C0.996094 235.491 19.8487 250 43.1014 250C63.6904 250 80.8297 238.625 84.4862 223.608C84.9592 221.665 85.2066 219.662 85.2066 217.614V93.6818L185.207 60.8528V159.934C184.253 159.347 183.265 158.791 182.246 158.268C177.56 155.865 172.212 154.164 166.457 153.362ZM182.246 180.127L175.38 175.902C171.29 173.385 165.578 171.591 158.891 171.591C151.041 171.591 144.619 174.059 140.55 177.188C136.501 180.303 135.536 183.306 135.536 185.227C135.536 187.141 136.499 190.146 140.551 193.263C144.622 196.395 151.045 198.864 158.891 198.864C166.737 198.864 173.159 196.395 177.23 193.263C181.283 190.146 182.246 187.141 182.246 185.227V180.127ZM182.246 42.0902V25.8873L88.1671 56.7623V72.9754L182.246 42.0902ZM66.4566 212.514V217.614C66.4566 219.527 65.4933 222.532 61.4409 225.65C57.37 228.781 50.9476 231.25 43.1014 231.25C35.2551 231.25 28.8327 228.781 24.7618 225.65C20.7094 222.532 19.7461 219.527 19.7461 217.614C19.7461 215.693 20.7113 212.689 24.7601 209.575C28.8294 206.445 35.2518 203.977 43.1014 203.977C49.7884 203.977 55.5002 205.772 59.5908 208.289L66.4566 212.514Z" fill="#d9d9d9"/>
</svg>
