<svg width="50" height="50" viewBox="0 0 50 50" fill="none" xmlns="http://www.w3.org/2000/svg">
<circle cx="25" cy="25" r="25" fill="#E8F3FE"/>
<path d="M31.5602 23.0834H19.4398C18.4835 23.0834 17.7083 23.8906 17.7083 24.8864V31.197C17.7083 32.1928 18.4835 33 19.4398 33H31.5602C32.5164 33 33.2916 32.1928 33.2916 31.197V24.8864C33.2916 23.8906 32.5164 23.0834 31.5602 23.0834Z" stroke="#B4C2D1" stroke-width="3" stroke-linecap="round" stroke-linejoin="round"/>
<path d="M20.5416 23.0833V19.9352C20.5416 18.8915 21.064 17.8906 21.9939 17.1526C22.9238 16.4146 24.1849 16 25.5 16C26.815 16 28.0762 16.4146 29.006 17.1526C29.9359 17.8906 30.4583 18.8915 30.4583 19.9352V23.0833" stroke="#B4C2D1" stroke-width="3" stroke-linecap="round" stroke-linejoin="round"/>
</svg>
