<svg width="13" height="14" viewBox="0 0 13 14" fill="none" xmlns="http://www.w3.org/2000/svg">
<path d="M10.7778 6H2.22222C1.54721 6 1 6.56982 1 7.27273V11.7273C1 12.4302 1.54721 13 2.22222 13H10.7778C11.4528 13 12 12.4302 12 11.7273V7.27273C12 6.56982 11.4528 6 10.7778 6Z" stroke="#B4C2D1" stroke-width="2" stroke-linecap="round" stroke-linejoin="round"/>
<path d="M3 6V3.77778C3 3.04107 3.36875 2.33453 4.02513 1.81359C4.6815 1.29266 5.57174 1 6.5 1C7.42826 1 8.3185 1.29266 8.97487 1.81359C9.63125 2.33453 10 3.04107 10 3.77778V6" stroke="#B4C2D1" stroke-width="2" stroke-linecap="round" stroke-linejoin="round"/>
</svg>
