<svg width="40" height="40" viewBox="0 0 40 40" fill="none" xmlns="http://www.w3.org/2000/svg">
<path d="M38.6312 10.8248L28.4406 0.235781C28.2955 0.0851562 28.0954 0 27.8863 0H12.698C10.9983 0 9.61537 1.38234 9.61537 3.08141V13.8462H3.46014C2.18842 13.8462 1.15381 14.8805 1.15381 16.1519V27.6944C1.15381 28.9657 2.18842 30 3.46014 30H9.61537V36.924C9.61537 38.6201 10.9983 40 12.698 40H35.7635C37.4633 40 38.8461 38.6209 38.8461 36.9257V11.3582C38.8461 11.1593 38.769 10.9681 38.6312 10.8248ZM28.0769 2.07664L36.4425 10.7692H28.0769V2.07664ZM3.46014 28.4616C3.0367 28.4616 2.69232 28.1174 2.69232 27.6944V16.1519C2.69232 15.7288 3.03678 15.3846 3.46014 15.3846H24.2322C24.6556 15.3846 25 15.7288 25 16.1519V27.6944C25 28.1174 24.6555 28.4616 24.2322 28.4616H3.46014ZM37.3076 36.9257C37.3076 37.7726 36.6149 38.4616 35.7634 38.4616H12.698C11.8465 38.4616 11.1538 37.7719 11.1538 36.9241V30H24.2322C25.5039 30 26.5385 28.9657 26.5385 27.6944V16.1519C26.5385 14.8805 25.5039 13.8462 24.2322 13.8462H11.1538V3.08141C11.1538 2.23055 11.8465 1.53844 12.698 1.53844H26.5384V11.5384C26.5384 11.9633 26.8829 12.3077 27.3076 12.3077H37.3076V36.9257Z" fill="#323232"/>
<path d="M10.3499 19.5233C10.0945 19.1913 9.77748 18.9756 9.39888 18.8765C9.15248 18.8104 8.62365 18.7773 7.81232 18.7773H5.67139V25.3849H7.00553V22.8924H7.87545C8.47943 22.8924 8.94068 22.8609 9.2592 22.7977C9.49357 22.7466 9.7242 22.6423 9.95107 22.4845C10.1779 22.3267 10.365 22.1096 10.5122 21.8332C10.6595 21.5568 10.7331 21.2157 10.7331 20.8101C10.733 20.2842 10.6053 19.8553 10.3499 19.5233ZM9.20732 21.342C9.1067 21.4892 8.96771 21.5973 8.79037 21.6665C8.61303 21.7356 8.26154 21.7702 7.73568 21.7702H7.00553V19.8952H7.65006C8.13084 19.8952 8.45084 19.9102 8.61006 19.9402C8.82638 19.9793 9.00521 20.077 9.14638 20.2332C9.28763 20.3895 9.35826 20.5878 9.35826 20.8281C9.35834 21.0234 9.30795 21.1947 9.20732 21.342Z" fill="#323232"/>
<path d="M17.1468 20.5825C17.0026 20.1603 16.7922 19.8035 16.5158 19.512C16.2394 19.2205 15.9072 19.0177 15.5197 18.9035C15.2312 18.8194 14.812 18.7773 14.2622 18.7773H11.8237V25.3849H14.3343C14.8271 25.3849 15.2207 25.3384 15.5151 25.2452C15.9088 25.119 16.2213 24.9432 16.4526 24.7178C16.7591 24.4203 16.995 24.0312 17.1603 23.5505C17.2955 23.1568 17.3631 22.688 17.3631 22.1442C17.3631 21.5252 17.291 21.0047 17.1468 20.5825ZM15.8487 23.2959C15.7585 23.5919 15.6421 23.8045 15.4994 23.9336C15.3566 24.0628 15.1771 24.1545 14.9608 24.2085C14.7955 24.2506 14.5265 24.2716 14.154 24.2716H13.1579V19.8952H13.7573C14.3012 19.8952 14.6663 19.9162 14.8526 19.9583C15.1019 20.0123 15.3078 20.116 15.4701 20.2693C15.6323 20.4226 15.7585 20.6359 15.8487 20.9093C15.9388 21.1827 15.9839 21.5748 15.9839 22.0857C15.9839 22.5965 15.9388 22.9998 15.8487 23.2959Z" fill="#323232"/>
<path d="M23.0332 19.8952V18.7773H18.5034V25.3849H19.8376V22.577H22.596V21.4591H19.8376V19.8952H23.0332Z" fill="#323232"/>
</svg>
