<svg width="80" height="50" viewBox="0 0 80 50" fill="none" xmlns="http://www.w3.org/2000/svg">
<path d="M36 10.5H32C31.7261 10.5 31.5 10.2739 31.5 10C31.5 9.72614 31.7261 9.5 32 9.5H36C36.2739 9.5 36.5 9.72614 36.5 10C36.5 10.2739 36.2739 10.5 36 10.5Z" fill="#578BC9" stroke="#3D333B"/>
<path d="M46.7577 6.25118L46.9022 6.5H47.19H56C59.0339 6.5 61.5 8.96614 61.5 12V41C61.5 44.0339 59.0339 46.5 56 46.5H42H40H25C21.9661 46.5 19.5 44.0339 19.5 41V9C19.5 5.96614 21.9661 3.5 25 3.5H42C44.0329 3.5 45.8026 4.60731 46.7577 6.25118ZM46.0877 44.6663L45.3405 45.5H46.46H56C58.4861 45.5 60.5 43.4861 60.5 41V12C60.5 9.51386 58.4861 7.5 56 7.5H47.91H47.3285L47.4156 8.0749C47.4644 8.39699 47.5 8.69775 47.5 9V41C47.5 42.4096 46.9604 43.6924 46.0877 44.6663ZM25 45.5H40H42C44.4861 45.5 46.5 43.4861 46.5 41V9C46.5 6.51386 44.4861 4.5 42 4.5H25C22.5139 4.5 20.5 6.51386 20.5 9V41C20.5 43.4861 22.5139 45.5 25 45.5Z" fill="#578BC9" stroke="#3D333B"/>
<path d="M31.5 40.5C31.5 39.3961 32.3961 38.5 33.5 38.5C34.6039 38.5 35.5 39.3961 35.5 40.5C35.5 41.6039 34.6039 42.5 33.5 42.5C32.3961 42.5 31.5 41.6039 31.5 40.5ZM32.5 40.5C32.5 41.0561 32.9439 41.5 33.5 41.5C34.0561 41.5 34.5 41.0561 34.5 40.5C34.5 39.9439 34.0561 39.5 33.5 39.5C32.9439 39.5 32.5 39.9439 32.5 40.5Z" fill="#578BC9" stroke="#3D333B"/>
</svg>
