<svg width="155" height="111" viewBox="0 0 155 111" fill="none" xmlns="http://www.w3.org/2000/svg">
<path d="M25.616 0.0667725L37 2.00027L29.6336 10.8923L28.0028 6.49805C6.22762 16.9599 2 36.5832 2 47.0003H0C1.57546e-06 36.1091 4.44328 15.5059 27.304 4.61522L25.616 0.0667725Z" fill="white"/>
<path fill-rule="evenodd" clip-rule="evenodd" d="M127.577 59.3884C127.308 63.245 123.963 66.1527 120.106 65.883C116.249 65.6134 113.342 62.2684 113.611 58.4118C113.881 54.5552 117.226 51.6475 121.083 51.9171C124.939 52.1868 127.847 55.5318 127.577 59.3884ZM125.582 59.2489C125.389 62.0036 123 64.0805 120.245 63.8879C117.491 63.6953 115.414 61.306 115.606 58.5513C115.799 55.7966 118.188 53.7196 120.943 53.9123C123.698 54.1049 125.775 56.4942 125.582 59.2489Z" fill="white"/>
<path fill-rule="evenodd" clip-rule="evenodd" d="M27.246 53.4605C28.1193 53.5216 28.8768 52.8631 28.9379 51.9897C28.999 51.1163 28.3405 50.3588 27.4671 50.2977C26.5938 50.2367 25.8362 50.8952 25.7752 51.7685C25.7141 52.6419 26.3726 53.3994 27.246 53.4605ZM27.3855 51.4654C27.157 51.4494 26.9588 51.6217 26.9428 51.8502C26.9268 52.0787 27.0991 52.2769 27.3276 52.2929C27.5561 52.3088 27.7543 52.1366 27.7703 51.908C27.7863 51.6795 27.614 51.4813 27.3855 51.4654Z" fill="white"/>
<path d="M32.2994 45.7089C32.3379 45.1579 32.8158 44.7426 33.3667 44.7811L33.487 44.7895C34.0379 44.828 34.4533 45.3059 34.4148 45.8568L33.508 58.8251C33.4694 59.3761 32.9916 59.7915 32.4407 59.7529L32.3204 59.7445C31.7694 59.706 31.354 59.2282 31.3925 58.6772L32.2994 45.7089Z" fill="white"/>
<path d="M72.1321 49.4968C71.0302 49.4197 70.1994 48.464 70.2765 47.3621C70.3535 46.2602 71.3092 45.4294 72.4111 45.5065C73.513 45.5835 74.3438 46.5393 74.2667 47.6411C74.1897 48.743 73.234 49.5738 72.1321 49.4968Z" fill="white"/>
<path d="M69.2999 61.3279C69.2229 62.4298 70.0537 63.3855 71.1555 63.4626C72.2574 63.5396 73.2131 62.7088 73.2902 61.607C73.3672 60.5051 72.5364 59.5494 71.4346 59.4723C70.3327 59.3953 69.377 60.2261 69.2999 61.3279Z" fill="white"/>
<path d="M84.312 47.3411L83.3145 47.2714L82.1286 64.23L83.1262 64.2997L84.312 47.3411Z" fill="white"/>
<path fill-rule="evenodd" clip-rule="evenodd" d="M75.3062 75.7822C86.8759 76.5912 96.9109 67.8679 97.7199 56.2982C98.5289 44.7285 89.8057 34.6935 78.236 33.8845C66.6662 33.0754 56.6313 41.7987 55.8222 53.3684C55.0132 64.9381 63.7365 74.9731 75.3062 75.7822ZM75.3759 74.7846C86.3947 75.5551 95.9518 67.2472 96.7223 56.2284C97.4929 45.2096 89.185 35.6525 78.1662 34.882C67.1474 34.1115 57.5903 42.4194 56.8198 53.4382C56.0493 64.457 64.3571 74.0141 75.3759 74.7846Z" fill="white"/>
<path fill-rule="evenodd" clip-rule="evenodd" d="M22.3024 30.9757C22.6877 25.4663 27.4662 21.3123 32.9756 21.6976L125.749 28.1849C131.258 28.5702 135.412 33.3487 135.027 38.8581L132.167 79.7583C131.782 85.2677 127.003 89.4216 121.494 89.0363L28.7205 82.549C23.2111 82.1637 19.0572 77.3852 19.4424 71.8758L22.3024 30.9757ZM32.8361 23.6927L125.61 30.1801C130.017 30.4883 133.34 34.3111 133.032 38.7186L130.172 79.6188C129.864 84.0263 126.041 87.3494 121.633 87.0412L28.86 80.5539C24.4525 80.2457 21.1293 76.4228 21.4375 72.0153L24.2976 31.1152C24.6058 26.7076 28.4286 23.3845 32.8361 23.6927Z" fill="white"/>
<path d="M118 109L129.384 110.933L127.696 106.385C150.557 95.494 155 74.8907 155 63.9996H153C153 74.4167 148.772 94.04 126.997 104.502L125.366 100.108L118 109Z" fill="white"/>
</svg>
