<svg width="40" height="40" viewBox="0 0 40 40" fill="none" xmlns="http://www.w3.org/2000/svg">
<path d="M38.631 10.8248L28.4404 0.235781C28.2955 0.0851562 28.0955 0 27.8862 0H12.6979C10.9981 0 9.61529 1.38234 9.61529 3.08141V13.8462H3.45998C2.18842 13.8462 1.15381 14.8805 1.15381 16.1519V27.6944C1.15381 28.9657 2.18842 30 3.45998 30H9.61529V36.924C9.61529 38.6201 10.998 40 12.6979 40H35.7635C37.4633 40 38.8461 38.6209 38.8461 36.9257V11.3582C38.8461 11.1593 38.769 10.9681 38.631 10.8248ZM28.0769 2.07664L36.4424 10.7692H28.0769V2.07664ZM3.45998 28.4616C3.0367 28.4616 2.69225 28.1174 2.69225 27.6944V16.1519C2.69225 15.7288 3.0367 15.3846 3.45998 15.3846H24.232C24.6555 15.3846 24.9999 15.7288 24.9999 16.1519V27.6944C24.9999 28.1174 24.6555 28.4616 24.232 28.4616H3.45998ZM37.3076 36.9257C37.3076 37.7726 36.615 38.4616 35.7635 38.4616H12.6979C11.8464 38.4616 11.1538 37.7719 11.1538 36.9241V30H24.232C25.5038 30 26.5384 28.9657 26.5384 27.6944V16.1519C26.5384 14.8805 25.5038 13.8462 24.232 13.8462H11.1537V3.08141C11.1537 2.23055 11.8463 1.53844 12.6978 1.53844H26.5383V11.5384C26.5383 11.9633 26.8828 12.3077 27.3076 12.3077H37.3076V36.9257Z" fill="#323232"/>
<path d="M17.512 18.7769V19.8945H19.4727V25.3844H20.8067V19.8945H22.7629V18.7769H17.512Z" fill="#323232"/>
<path d="M16.5069 19.5228C16.2515 19.1907 15.9344 18.9751 15.5559 18.8758C15.3094 18.8097 14.7806 18.7769 13.9694 18.7769H11.8284V25.3844H13.1624V22.8919H14.0324C14.6363 22.8919 15.0977 22.8603 15.4161 22.7972C15.6506 22.7461 15.8811 22.6416 16.108 22.484C16.3347 22.3262 16.5218 22.1091 16.6691 21.8326C16.8163 21.5563 16.8899 21.2151 16.8899 20.8095C16.8899 20.2838 16.7623 19.8547 16.5069 19.5228ZM15.3644 21.3415C15.2636 21.4886 15.1245 21.5969 14.9474 21.6659C14.7701 21.7349 14.4186 21.7695 13.8926 21.7695H13.1624V19.8945H13.807C14.2878 19.8945 14.6077 19.9095 14.767 19.9395C14.9834 19.9787 15.1622 20.0762 15.3034 20.2326C15.4448 20.3887 15.5153 20.5872 15.5153 20.8276C15.5153 21.0228 15.4649 21.1941 15.3644 21.3415Z" fill="#323232"/>
<path d="M10.3499 19.5228C10.0945 19.1907 9.77756 18.9751 9.39889 18.8758C9.15256 18.8097 8.62373 18.7769 7.81232 18.7769H5.67139V25.3844H7.0056V22.8919H7.87537C8.47943 22.8919 8.9406 22.8603 9.25904 22.7972C9.4935 22.7461 9.72404 22.6416 9.951 22.484C10.1779 22.3262 10.3648 22.1091 10.5122 21.8326C10.6594 21.5563 10.7329 21.2151 10.7329 20.8095C10.7329 20.2838 10.6053 19.8547 10.3499 19.5228ZM9.2074 21.3415C9.10662 21.4886 8.96779 21.5969 8.79045 21.6659C8.61318 21.7349 8.26162 21.7695 7.73584 21.7695H7.0056V19.8945H7.65006C8.13084 19.8945 8.45084 19.9095 8.61006 19.9395C8.82639 19.9787 9.00521 20.0762 9.14639 20.2326C9.28779 20.3887 9.35834 20.5872 9.35834 20.8276C9.35842 21.0229 9.30803 21.1941 9.2074 21.3415Z" fill="#323232"/>
</svg>
