<svg width="22" height="22" viewBox="0 0 22 22" fill="none" xmlns="http://www.w3.org/2000/svg">
<path d="M11 0.999999C5.47715 1 0.999999 5.47715 1 11C1 16.5228 5.47715 21 11 21" stroke="black" stroke-width="2" stroke-dasharray="9 3"/>
<path d="M11 21C16.5228 21 21 16.5228 21 11C21 5.47715 16.5228 1 11 1" stroke="black" stroke-width="2"/>
<path d="M6.1071 9.49284C5.71658 9.10232 5.08341 9.10232 4.69289 9.49284C4.30236 9.88337 4.30236 10.5165 4.69289 10.9071L6.1071 9.49284ZM10.2 15L9.49289 15.7071C9.88341 16.0976 10.5166 16.0976 10.9071 15.7071L10.2 15ZM17.7071 8.90706C18.0976 8.51653 18.0976 7.88337 17.7071 7.49284C17.3166 7.10232 16.6834 7.10232 16.2929 7.49284L17.7071 8.90706ZM4.69289 10.9071L9.49289 15.7071L10.9071 14.2928L6.1071 9.49284L4.69289 10.9071ZM10.9071 15.7071L17.7071 8.90706L16.2929 7.49284L9.49289 14.2928L10.9071 15.7071Z" fill="black"/>
</svg>
