<svg width="27" height="27" viewBox="0 0 27 27" fill="none" xmlns="http://www.w3.org/2000/svg">
<path d="M13.5 3C7.70101 3 3 7.70101 3 13.5C3 19.299 7.70101 24 13.5 24" stroke="black" stroke-width="2" stroke-dasharray="9 3"/>
<path d="M13.5 24C19.299 24 24 19.299 24 13.5C24 7.70101 19.299 3 13.5 3" stroke="black" stroke-width="2"/>
<path d="M8.32711 11.9528C7.93659 11.5623 7.30342 11.5623 6.9129 11.9528C6.52237 12.3434 6.52237 12.9765 6.9129 13.367L8.32711 11.9528ZM12.66 17.6999L11.9529 18.407C12.3434 18.7976 12.9766 18.7976 13.3671 18.407L12.66 17.6999ZM20.5071 11.267C20.8976 10.8765 20.8976 10.2434 20.5071 9.85283C20.1166 9.46231 19.4834 9.46231 19.0929 9.85283L20.5071 11.267ZM6.9129 13.367L11.9529 18.407L13.3671 16.9928L8.32711 11.9528L6.9129 13.367ZM13.3671 18.407L20.5071 11.267L19.0929 9.85283L11.9529 16.9928L13.3671 18.407Z" fill="black"/>
</svg>
