<svg width="16" height="17" viewBox="0 0 16 17" fill="none" xmlns="http://www.w3.org/2000/svg">
<path fill-rule="evenodd" clip-rule="evenodd" d="M12.7983 12.1024V10.4833C13.2504 10.3904 13.6568 10.1422 13.9487 9.78079C14.2406 9.41933 14.4001 8.96683 14.4001 8.5C14.4001 8.03317 14.2406 7.58067 13.9487 7.21921C13.6568 6.85775 13.2504 6.60956 12.7983 6.51666V4.89761C13.6773 4.99204 14.4907 5.4123 15.0818 6.07741C15.6729 6.74251 16 7.60543 16 8.5C16 9.39457 15.6729 10.2575 15.0818 10.9226C14.4907 11.5877 13.6773 12.008 12.7983 12.1024ZM10.3986 16.7936L10.2634 16.9895L4.30183 12.1429H0V4.85714H4.30183L10.2634 0.0105242L10.3986 0.206433V0H11.9984V17H10.3986V16.7936Z" fill="white"/>
</svg>
