<svg width="39" height="38" viewBox="0 0 39 38" fill="none" xmlns="http://www.w3.org/2000/svg">
<path fill-rule="evenodd" clip-rule="evenodd" d="M20.4307 32.2393C19.848 31.933 19.152 31.933 18.5693 32.2393L9.86178 36.8171C8.39452 37.5885 6.67966 36.3426 6.95988 34.7088L8.62287 25.0128C8.73415 24.364 8.51905 23.702 8.04768 23.2425L1.00313 16.3758C-0.183906 15.2187 0.471114 13.2028 2.11155 12.9644L11.8469 11.5498C12.4983 11.4551 13.0614 11.046 13.3528 10.4557L17.7065 1.63397C18.4402 0.147481 20.5598 0.14748 21.2935 1.63397L25.6472 10.4557C25.9386 11.046 26.5017 11.4551 27.1531 11.5498L36.8884 12.9644C38.5289 13.2028 39.1839 15.2187 37.9969 16.3758L30.9523 23.2425C30.481 23.702 30.2659 24.364 30.3771 25.0128L32.0401 34.7088C32.3203 36.3426 30.6055 37.5885 29.1382 36.8171L20.4307 32.2393Z" fill="url(#paint0_linear)"/>
<defs>
<linearGradient id="paint0_linear" x1="37.8869" y1="-11.3974" x2="63.2875" y2="28.2396" gradientUnits="userSpaceOnUse">
<stop stop-color="#DADADA"/>
<stop offset="1" stop-color="#DADADA"/>
</linearGradient>
</defs>
</svg>
