<svg width="31" height="31" viewBox="0 0 31 31" fill="none" xmlns="http://www.w3.org/2000/svg">
<path d="M25.0263 3H5.44737C4.10132 3 3 4.11375 3 5.475V20.325C3 21.6862 4.10132 22.8 5.44737 22.8H25.0263C26.3724 22.8 27.4737 21.6862 27.4737 20.325V5.475C27.4737 4.11375 26.3724 3 25.0263 3ZM25.0263 20.325H5.44737V5.475H25.0263V20.325ZM7.89474 10.425H10.3421V12.9H7.89474V10.425ZM7.89474 15.375H17.6842V17.85H7.89474V15.375ZM20.1316 15.375H22.5789V17.85H20.1316V15.375ZM12.7895 10.425H22.5789V12.9H12.7895V10.425Z" fill="white"/>
<path d="M4 26H27" stroke="#FCFCFC" stroke-width="2" stroke-linecap="round" stroke-linejoin="round"/>
</svg>
