<svg width="31" height="31" viewBox="0 0 31 31" fill="none" xmlns="http://www.w3.org/2000/svg">
<path d="M25.0263 6H5.44737C4.10132 6 3 7.11375 3 8.475V23.325C3 24.6862 4.10132 25.8 5.44737 25.8H25.0263C26.3724 25.8 27.4737 24.6862 27.4737 23.325V8.475C27.4737 7.11375 26.3724 6 25.0263 6ZM25.0263 23.325H5.44737V8.475H25.0263V23.325ZM7.89474 13.425H10.3421V15.9H7.89474V13.425ZM7.89474 18.375H17.6842V20.85H7.89474V18.375ZM20.1316 18.375H22.5789V20.85H20.1316V18.375ZM12.7895 13.425H22.5789V15.9H12.7895V13.425Z" fill="white"/>
</svg>
