<svg width="80" height="80" viewBox="0 0 80 80" fill="none" xmlns="http://www.w3.org/2000/svg">
<path d="M40 4C42.4148 4 44.7661 4.28571 47.0221 4.79365L47.88 13.7143C49.6911 14.254 51.4069 14.9841 53.0591 15.8413L59.9541 10.127C61.9241 11.3651 63.7988 12.8254 65.4828 14.5079C67.1986 16.2222 68.6602 18.0635 69.8676 20.0317L64.1483 26.9841C65.0379 28.6032 65.737 30.3492 66.2771 32.1587L75.2056 33.0159C75.714 35.2698 76 37.619 76 40.0317C76 42.4444 75.714 44.7937 75.2056 47.0476L66.2771 47.9048C65.737 49.7143 65.0062 51.4286 64.1483 53.0794L69.8676 59.9683C68.6284 61.9365 67.1668 63.7778 65.4828 65.4921C63.767 67.2063 61.9241 68.6667 59.9541 69.873L53.0591 64.1587C51.4387 65.0476 49.6911 65.746 47.88 66.2857L47.0221 75.2063C44.7661 75.7143 42.4148 76 40 76C37.5852 76 35.2339 75.7143 32.9779 75.2063L32.12 66.2857C30.3089 65.746 28.5931 65.0159 26.9409 64.1587L20.0459 69.873C18.0759 68.6349 16.233 67.1746 14.5172 65.4921C12.8014 63.7778 11.3398 61.9365 10.1324 59.9683L15.8517 53.0794C14.962 51.4603 14.263 49.7143 13.7229 47.9048L4.79435 47.0476C4.28597 44.7937 4 42.4444 4 40.0317C4 37.619 4.28597 35.2698 4.79435 33.0159L13.7229 32.1587C14.2312 30.3175 14.962 28.6032 15.8517 26.9841L10.1324 20.0635C11.3716 18.0952 12.8332 16.254 14.5172 14.5397C16.233 12.8254 18.0759 11.3651 20.0459 10.1587L26.9726 15.873C28.5931 14.9841 30.3407 14.2857 32.1518 13.746L33.0097 4.8254C35.2339 4.28571 37.5852 4 40 4Z" stroke="black" stroke-width="2" stroke-miterlimit="22.9256"/>
<path d="M40 25C48.2895 25 55 31.7105 55 40C55 48.2895 48.2895 55 40 55C31.7105 55 25 48.2895 25 40C25 31.7105 31.7105 25 40 25Z" stroke="black" stroke-width="2" stroke-miterlimit="22.9256"/>
</svg>
