<svg width="28" height="28" viewBox="0 0 28 28" fill="none" xmlns="http://www.w3.org/2000/svg">
<path fill-rule="evenodd" clip-rule="evenodd" d="M7.33333 8.21429V14.6429H16V8.21429H7.33333ZM14.6667 9.5H8.66667V13.3571H14.6667V9.5Z" fill="black"/>
<path d="M7.33333 16.5714H16V17.8571H7.33333V16.5714Z" fill="black"/>
<path fill-rule="evenodd" clip-rule="evenodd" d="M4 19.7857C4 21.5609 5.49238 23 7.33333 23H21.3333L21.3099 22.9847C22.8212 22.8352 24 21.6039 24 20.1071V12.0714H19.3333V5H4V19.7857ZM18 6.28571H5.33333V19.7857C5.33333 20.8508 6.22876 21.7143 7.33333 21.7143H18.5052C18.1861 21.2546 18 20.7018 18 20.1071V6.28571ZM19.3333 13.3571H22.6667V20.1071C22.6667 20.9947 21.9205 21.7143 21 21.7143C20.0795 21.7143 19.3333 20.9947 19.3333 20.1071V13.3571Z" fill="black"/>
</svg>
