<svg width="40" height="40" viewBox="0 0 40 40" fill="none" xmlns="http://www.w3.org/2000/svg">
<path d="M38.6312 10.8248L28.4406 0.235781C28.2955 0.0851562 28.0954 0 27.8863 0H12.698C10.9983 0 9.61537 1.38234 9.61537 3.08141V13.8462H3.46014C2.18842 13.8462 1.15381 14.8805 1.15381 16.1519V27.6944C1.15381 28.9657 2.18842 30 3.46014 30H9.61537V36.924C9.61537 38.6201 10.9983 40 12.698 40H35.7635C37.4633 40 38.8461 38.6209 38.8461 36.9257V11.3582C38.8461 11.1593 38.769 10.9681 38.6312 10.8248ZM28.0769 2.07664L36.4425 10.7692H28.0769V2.07664ZM3.46014 28.4616C3.0367 28.4616 2.69232 28.1174 2.69232 27.6944V16.1519C2.69232 15.7288 3.03678 15.3846 3.46014 15.3846H24.2321C24.6554 15.3846 25 15.7288 25 16.1519V27.6944C25 28.1174 24.6554 28.4616 24.2321 28.4616H3.46014ZM37.3076 36.9257C37.3076 37.7726 36.6149 38.4616 35.7634 38.4616H12.698C11.8465 38.4616 11.1538 37.7719 11.1538 36.9241V30H24.232C25.5038 30 26.5384 28.9657 26.5384 27.6944V16.1519C26.5384 14.8805 25.5038 13.8462 24.232 13.8462H11.1538V3.08141C11.1538 2.23055 11.8465 1.53844 12.698 1.53844H26.5384V11.5384C26.5384 11.9633 26.8829 12.3077 27.3076 12.3077H37.3076V36.9257Z" fill="#323232"/>
<path d="M22.2378 22.4078C22.062 22.1238 21.8186 21.8999 21.5077 21.7361C21.1966 21.5724 20.7167 21.414 20.0677 21.2607C19.4186 21.1074 19.01 20.9602 18.8417 20.819C18.7094 20.7078 18.6433 20.5739 18.6433 20.4178C18.6433 20.2465 18.7138 20.1097 18.8552 20.0076C19.0746 19.8484 19.3781 19.7688 19.7656 19.7688C20.1412 19.7688 20.423 19.8432 20.6108 19.9918C20.7985 20.1405 20.9209 20.3847 20.978 20.7243L22.3121 20.6656C22.2912 20.0587 22.0712 19.5734 21.652 19.2099C21.2327 18.8463 20.6085 18.6646 19.7793 18.6646C19.2714 18.6646 18.838 18.741 18.4789 18.8944C18.1198 19.0477 17.8448 19.2707 17.6541 19.5636C17.4633 19.8567 17.3677 20.1715 17.3677 20.5081C17.3677 21.0307 17.5706 21.474 17.9764 21.8377C18.2648 22.096 18.7666 22.3138 19.4818 22.4911C20.0376 22.6294 20.3937 22.7256 20.5498 22.7796C20.7784 22.8607 20.9383 22.9561 21.0298 23.0657C21.1216 23.1756 21.1673 23.3084 21.1673 23.4648C21.1673 23.7081 21.0584 23.9207 20.8406 24.1024C20.6227 24.2842 20.2991 24.3751 19.8693 24.3751C19.4637 24.3751 19.1414 24.273 18.9026 24.0685C18.6637 23.8643 18.5053 23.5443 18.427 23.1085L17.1289 23.2347C17.216 23.9739 17.4835 24.5367 17.9312 24.9228C18.379 25.3087 19.0205 25.5018 19.8559 25.5018C20.4297 25.5018 20.9091 25.4214 21.2937 25.2606C21.6784 25.1001 21.9756 24.8543 22.186 24.5237C22.3964 24.1933 22.5016 23.8387 22.5016 23.46C22.5015 23.0424 22.4136 22.6917 22.2378 22.4078Z" fill="#323232"/>
<path d="M13.1986 24.2712V18.8311H11.8643V25.3845H16.5159V24.2712H13.1986Z" fill="#323232"/>
<path d="M8.88516 21.9859L10.9405 18.7769H9.39461L8.09656 20.8997L6.77133 18.7769H5.21195L7.25805 21.9363L5 25.3844H6.6L8.06945 23.0991L9.53422 25.3844H11.1433L8.88516 21.9859Z" fill="#323232"/>
</svg>
